<svg width="24" height="24" viewBox="0 0 24 24" fill="none" xmlns="http://www.w3.org/2000/svg">
<path fill-rule="evenodd" clip-rule="evenodd" d="M7.76401 17.4933H10.98C11.0833 17.9476 11.2654 18.4011 11.5518 18.8032C12.0833 19.5495 12.93 20.0485 14.0527 20.0485C15.1754 20.0485 16.022 19.5495 16.5535 18.8032C17.0544 18.1 17.236 17.2399 17.236 16.4933C17.236 15.9411 16.7883 15.4933 16.236 15.4933H7.76401C7.21172 15.4933 6.76401 15.9411 6.76401 16.4933C6.76401 17.0456 7.21172 17.4933 7.76401 17.4933ZM15.0159 17.4933H13.0894C13.1176 17.547 13.1481 17.597 13.1808 17.643C13.3445 17.8728 13.5895 18.0485 14.0527 18.0485C14.5158 18.0485 14.7608 17.8728 14.9245 17.643C14.9572 17.597 14.9877 17.547 15.0159 17.4933Z" fill="#fff"/>
<path d="M5.70757 7.81645C6.09809 7.42593 6.73126 7.42593 7.12178 7.81645L8.15875 8.85343L9.1958 7.81638C9.58632 7.42585 10.2195 7.42585 10.61 7.81638C11.0005 8.2069 11.0005 8.84007 10.61 9.23059L9.57297 10.2676L10.61 11.3047C11.0005 11.6952 11.0005 12.3284 10.61 12.7189C10.2195 13.1094 9.58633 13.1094 9.1958 12.7189L8.15875 11.6819L7.12178 12.7188C6.73126 13.1094 6.09809 13.1094 5.70757 12.7188C5.31704 12.3283 5.31704 11.6951 5.70757 11.3046L6.74454 10.2676L5.70757 9.23067C5.31704 8.84014 5.31704 8.20698 5.70757 7.81645Z" fill="#fff"/>
<path d="M13.39 7.81645C13.7805 7.42593 14.4137 7.42593 14.8042 7.81645L15.8412 8.85343L16.8782 7.81638C17.2687 7.42585 17.9019 7.42585 18.2924 7.81638C18.683 8.2069 18.683 8.84007 18.2924 9.23059L17.2554 10.2676L18.2924 11.3047C18.683 11.6952 18.683 12.3284 18.2924 12.7189C17.9019 13.1094 17.2687 13.1094 16.8782 12.7189L15.8412 11.6819L14.8042 12.7188C14.4137 13.1094 13.7805 13.1094 13.39 12.7188C12.9995 12.3283 12.9995 11.6951 13.39 11.3046L14.427 10.2676L13.39 9.23067C12.9995 8.84014 12.9995 8.20698 13.39 7.81645Z" fill="#fff"/>
<path fill-rule="evenodd" clip-rule="evenodd" d="M12 1C5.92487 1 1 5.92487 1 12C1 18.0751 5.92487 23 12 23C18.0751 23 23 18.0751 23 12C23 5.92487 18.0751 1 12 1ZM3 12C3 7.02944 7.02944 3 12 3C16.9706 3 21 7.02944 21 12C21 16.9706 16.9706 21 12 21C7.02944 21 3 16.9706 3 12Z" fill="#fff"/>
</svg>
