<svg width="24" height="24" viewBox="0 0 24 24" fill="none" xmlns="http://www.w3.org/2000/svg">
<path fill-rule="evenodd" clip-rule="evenodd" d="M7.00094 22L6.99075 22C6.86498 21.9988 6.74475 21.9745 6.63415 21.931C6.50983 21.8822 6.39332 21.8076 6.29286 21.7071L1.99286 17.4071C0.630801 16.0451 0.568334 13.8945 2.0099 12.5759L11.5929 2.99289C12.9549 1.63084 15.1054 1.56837 16.4241 3.00994L22.0071 8.59289C23.3691 9.95494 23.4316 12.1055 21.99 13.4241L15.4142 20H22C22.5523 20 23 20.4477 23 21C23 21.5523 22.5523 22 22 22H7.00094ZM14.9567 4.36897C14.4736 3.8322 13.6384 3.77577 13.0071 4.40711L6.4142 11L14 18.5858L20.5929 11.9929C20.6052 11.9805 20.618 11.9684 20.631 11.9567C21.1678 11.4736 21.2242 10.6384 20.5929 10.0071L14.9929 4.40711C14.9805 4.39471 14.9684 4.38199 14.9567 4.36897ZM12.5857 20L4.99998 12.4142L3.40707 14.0071C3.39467 14.0195 3.38196 14.0316 3.36893 14.0433C2.83217 14.5264 2.77573 15.3616 3.40707 15.9929L7.41418 20H12.5857Z" fill="#fff"/>
</svg>
