<svg width="24" height="24" viewBox="0 0 24 24" fill="none" xmlns="http://www.w3.org/2000/svg">
<path fill-rule="evenodd" clip-rule="evenodd" d="M2.70711 1.29289C2.31658 0.902369 1.68342 0.902369 1.29289 1.29289C0.902369 1.68342 0.902369 2.31658 1.29289 2.70711L5.07338 6.48759C3.84081 7.48072 2.92008 8.60446 2.28209 9.53148C1.88672 10.106 1.59445 10.6129 1.39935 10.9799C1.30168 11.1636 1.22801 11.3129 1.17763 11.4189C1.15244 11.4719 1.13304 11.5141 1.11936 11.5445L1.1031 11.581L1.09816 11.5923L1.09648 11.5962L1.09556 11.5983C0.987758 11.8498 0.98788 12.136 1.09569 12.3875L1.09612 12.3885L1.09719 12.391L1.10018 12.3979L1.10957 12.4192C1.11734 12.4366 1.12815 12.4606 1.14204 12.4907C1.16981 12.5508 1.20991 12.6353 1.26262 12.7407C1.36797 12.9514 1.52411 13.2465 1.7333 13.598C2.15056 14.299 2.78504 15.2345 3.65668 16.1732C5.39937 18.0499 8.14633 19.9928 12.0145 19.9928C14.058 19.9928 15.7966 19.4486 17.2394 18.6536L21.2929 22.7071C21.6834 23.0976 22.3166 23.0976 22.7071 22.7071C23.0976 22.3166 23.0976 21.6834 22.7071 21.2929L14.832 13.4177C14.829 13.4148 14.8261 13.4119 14.8231 13.4089L10.5912 9.17695C10.5882 9.17392 10.5852 9.17092 10.5821 9.16794L2.70711 1.29289ZM8.53604 9.95026L6.49732 7.91153C5.37446 8.779 4.52382 9.80195 3.92962 10.6653C3.58409 11.1674 3.33067 11.6076 3.1653 11.9187C3.1517 11.9443 3.1387 11.969 3.12631 11.9928C3.20833 12.15 3.31662 12.3478 3.45189 12.575C3.81589 13.1865 4.36891 14.001 5.12226 14.8123C6.62957 16.4356 8.88262 17.9928 12.0145 17.9928C13.4438 17.9928 14.6843 17.6698 15.7534 17.1676L14.0497 15.464C13.891 15.5635 13.7251 15.6519 13.5532 15.7285C13.0625 15.9472 12.5328 16.0647 11.9957 16.0742C11.4587 16.0837 10.9252 15.9849 10.4271 15.7837C9.92903 15.5825 9.47658 15.2831 9.09674 14.9033C8.71691 14.5234 8.41747 14.071 8.21629 13.5729C8.01512 13.0748 7.91632 12.5413 7.92579 12.0043C7.93527 11.4672 8.05283 10.9375 8.27145 10.4468C8.34806 10.2749 8.43652 10.109 8.53604 9.95026ZM12.5579 13.9721L10.0279 11.4421C9.96372 11.6345 9.92907 11.836 9.92548 12.0395C9.92074 12.3081 9.97014 12.5748 10.0707 12.8239C10.1713 13.0729 10.321 13.2991 10.511 13.489C10.7009 13.679 10.9271 13.8287 11.1761 13.9293C11.4252 14.0299 11.6919 14.0793 11.9605 14.0745C12.164 14.0709 12.3655 14.0363 12.5579 13.9721ZM2.01447 11.9928L1.09569 12.3875C1.09569 12.3875 1.09533 12.3867 2.01447 11.9928ZM2.01447 11.9928C1.09533 11.5988 1.09556 11.5983 1.09556 11.5983L2.01447 11.9928Z" fill="#fff"/>
<path d="M12.0145 5.99275C11.6275 5.99275 11.2555 6.01639 10.898 6.06048C10.3499 6.12807 9.85074 5.73851 9.78315 5.19037C9.71556 4.64224 10.1051 4.1431 10.6533 4.07551C11.0921 4.0214 11.5458 3.99275 12.0145 3.99275C15.8826 3.99275 18.6296 5.93556 20.3723 7.8123C21.2439 8.75099 21.8784 9.68653 22.2956 10.3875C22.5048 10.739 22.661 11.0341 22.7663 11.2448C22.819 11.3502 22.8591 11.4347 22.8869 11.4948C22.9008 11.5249 22.9116 11.5489 22.9194 11.5663L22.9288 11.5876L22.9318 11.5945L22.9333 11.598L22.0145 11.9928L22.9335 12.387L22.933 12.3882L22.9321 12.3902L22.9298 12.3955L22.9228 12.4115C22.917 12.4245 22.9091 12.4422 22.899 12.4643C22.8788 12.5086 22.8499 12.5706 22.812 12.6483C22.7363 12.8035 22.6248 13.0218 22.4761 13.2863C22.1792 13.8142 21.731 14.5319 21.12 15.3019C20.7766 15.7345 20.1476 15.8069 19.715 15.4636C19.2824 15.1203 19.21 14.4912 19.5534 14.0586C20.0859 13.3876 20.4766 12.7616 20.7328 12.306C20.7984 12.1893 20.855 12.0842 20.9026 11.9927C20.8206 11.8355 20.7123 11.6377 20.5771 11.4105C20.2131 10.799 19.66 9.98451 18.9067 9.1732C17.3994 7.54995 15.1463 5.99275 12.0145 5.99275Z" fill="#fff"/>
<path d="M22.9335 12.387C22.9335 12.387 22.9336 12.3867 22.0145 11.9928C22.9336 11.5988 22.9333 11.598 22.9333 11.598C23.0411 11.8495 23.0413 12.1355 22.9335 12.387Z" fill="#fff"/>
</svg>
