<svg width="125" height="207" viewBox="0 0 125 207" fill="none" xmlns="http://www.w3.org/2000/svg">
<path fill-rule="evenodd" clip-rule="evenodd" d="M37.169 95.9149C28.8054 95.9149 22.0254 102.695 22.0254 111.058C22.0254 119.422 28.8054 126.202 37.169 126.202C45.5325 126.202 52.3126 119.422 52.3126 111.058C52.3126 102.695 45.5325 95.9149 37.169 95.9149ZM29.0254 111.058C29.0254 106.561 32.6714 102.915 37.169 102.915C41.6665 102.915 45.3126 106.561 45.3126 111.058C45.3126 115.556 41.6665 119.202 37.169 119.202C32.6714 119.202 29.0254 115.556 29.0254 111.058Z" fill="#fff"/>
<path fill-rule="evenodd" clip-rule="evenodd" d="M72.6376 111.058C72.6376 102.695 79.4176 95.9149 87.7812 95.9149C96.1447 95.9149 102.925 102.695 102.925 111.058C102.925 119.422 96.1447 126.202 87.7812 126.202C79.4176 126.202 72.6376 119.422 72.6376 111.058ZM87.7812 102.915C83.2836 102.915 79.6376 106.561 79.6376 111.058C79.6376 115.556 83.2836 119.202 87.7812 119.202C92.2787 119.202 95.9247 115.556 95.9247 111.058C95.9247 106.561 92.2787 102.915 87.7812 102.915Z" fill="#fff"/>
<path d="M37.739 151.179C35.806 151.179 34.239 149.612 34.239 147.679C34.239 145.746 35.806 144.179 37.739 144.179H87.2112C89.1442 144.179 90.7112 145.746 90.7112 147.679C90.7112 149.612 89.1442 151.179 87.2112 151.179H37.739Z" fill="#fff"/>
<path fill-rule="evenodd" clip-rule="evenodd" d="M73.4177 10.9427C73.4177 13.8171 72.3094 16.4327 70.4969 18.3854C72.3094 20.3381 73.4177 22.9536 73.4177 25.8281C73.4177 28.7025 72.3094 31.3181 70.4969 33.2708C72.3094 35.2235 73.4177 37.839 73.4177 40.7134C73.4177 43.5879 72.3094 46.2034 70.4969 48.1561C72.3094 50.1088 73.4177 52.7244 73.4177 55.5988C73.4177 57.2926 73.0329 58.8964 72.3459 60.3278C101.838 65.0543 124.37 90.6158 124.37 121.44C124.37 142.256 114.094 160.672 98.3379 171.892C103.866 173.82 107.832 179.078 107.832 185.263C107.832 193.082 101.494 199.42 93.6757 199.42C90.9435 199.42 88.3921 198.646 86.2288 197.305C84.1105 202.454 79.0443 206.079 73.1315 206.079C68.8821 206.079 65.0699 204.207 62.4751 201.242C59.8802 204.207 56.0681 206.079 51.8187 206.079C45.9058 206.079 40.8397 202.454 38.7214 197.305C36.5581 198.646 34.0067 199.42 31.2745 199.42C23.4561 199.42 17.118 193.082 17.118 185.263C17.118 179.078 21.0844 173.82 26.6123 171.892C10.8562 160.673 0.580078 142.256 0.580078 121.44C0.580078 90.6158 23.1122 65.0544 52.6041 60.3278C51.9172 58.8964 51.5323 57.2926 51.5323 55.5988C51.5323 52.7244 52.6406 50.1088 54.4532 48.1561C52.6406 46.2034 51.5323 43.5879 51.5323 40.7134C51.5323 37.839 52.6406 35.2235 54.4532 33.2708C52.6406 31.3181 51.5323 28.7025 51.5323 25.8281C51.5323 22.9536 52.6406 20.3381 54.4532 18.3854C52.6406 16.4327 51.5323 13.8171 51.5323 10.9427C51.5323 4.89921 56.4316 0 62.475 0C68.5185 0 73.4177 4.89921 73.4177 10.9427ZM62.475 7C60.2976 7 58.5323 8.7652 58.5323 10.9427C58.5323 13.1202 60.2976 14.8854 62.475 14.8854C64.6525 14.8854 66.4177 13.1202 66.4177 10.9427C66.4177 8.7652 64.6525 7 62.475 7ZM58.5323 25.8281C58.5323 23.6506 60.2976 21.8854 62.475 21.8854C64.6525 21.8854 66.4177 23.6506 66.4177 25.8281C66.4177 28.0056 64.6525 29.7708 62.475 29.7708C60.2976 29.7708 58.5323 28.0056 58.5323 25.8281ZM62.475 36.7708C60.2976 36.7708 58.5323 38.536 58.5323 40.7134C58.5323 42.8909 60.2976 44.6561 62.475 44.6561C64.6525 44.6561 66.4177 42.8909 66.4177 40.7134C66.4177 38.536 64.6525 36.7708 62.475 36.7708ZM58.5323 55.5988C58.5323 53.4213 60.2976 51.6561 62.475 51.6561C64.6525 51.6561 66.4177 53.4213 66.4177 55.5988C66.4177 57.7763 64.6525 59.5415 62.475 59.5415C60.2976 59.5415 58.5323 57.7763 58.5323 55.5988ZM7.58008 121.44C7.58008 91.1223 32.1574 66.545 62.4751 66.545C92.7927 66.545 117.37 91.1223 117.37 121.44C117.37 151.758 92.7927 176.335 62.4751 176.335C32.1574 176.335 7.58008 151.758 7.58008 121.44ZM65.9751 191.922C65.9751 195.875 69.1791 199.079 73.1315 199.079C77.0839 199.079 80.288 195.875 80.288 191.922C80.288 187.97 77.0839 184.766 73.1315 184.766C69.1791 184.766 65.9751 187.97 65.9751 191.922ZM58.9751 191.922C58.9751 187.97 55.7711 184.766 51.8187 184.766C47.8663 184.766 44.6622 187.97 44.6622 191.922C44.6622 195.875 47.8663 199.079 51.8187 199.079C55.7711 199.079 58.9751 195.875 58.9751 191.922ZM93.6757 178.107C89.7233 178.107 86.5193 181.311 86.5193 185.263C86.5193 189.216 89.7233 192.42 93.6757 192.42C97.6281 192.42 100.832 189.216 100.832 185.263C100.832 181.311 97.6281 178.107 93.6757 178.107ZM38.4309 185.263C38.4309 181.311 35.2269 178.107 31.2745 178.107C27.3221 178.107 24.118 181.311 24.118 185.263C24.118 189.216 27.3221 192.42 31.2745 192.42C35.2269 192.42 38.4309 189.216 38.4309 185.263Z" fill="#fff"/>
</svg>
