<svg width="124" height="207" viewBox="0 0 124 207" fill="none" xmlns="http://www.w3.org/2000/svg">
<path d="M37.319 151.179C35.386 151.179 33.819 149.612 33.819 147.679C33.819 145.746 35.386 144.179 37.319 144.179H86.7912C88.7242 144.179 90.2912 145.746 90.2912 147.679C90.2912 149.612 88.7242 151.179 86.7912 151.179H37.319Z" fill="#fff"/>
<path d="M26.9646 98.664C28.3315 97.2972 30.5476 97.2972 31.9144 98.664L39.6243 106.374L47.3342 98.6641C48.701 97.2972 50.9171 97.2972 52.2839 98.6641C53.6508 100.031 53.6508 102.247 52.2839 103.614L44.574 111.324L52.2839 119.034C53.6508 120.4 53.6508 122.617 52.2839 123.983C50.9171 125.35 48.701 125.35 47.3342 123.983L39.6243 116.273L31.9144 123.983C30.5476 125.35 28.3315 125.35 26.9646 123.983C25.5978 122.617 25.5978 120.4 26.9646 119.034L34.6745 111.324L26.9646 103.614C25.5978 102.247 25.5978 100.031 26.9646 98.664Z" fill="#fff"/>
<path d="M71.8261 98.664C73.1929 97.2972 75.409 97.2972 76.7758 98.664L84.4857 106.374L92.1956 98.6641C93.5625 97.2972 95.7785 97.2972 97.1454 98.6641C98.5122 100.031 98.5122 102.247 97.1454 103.614L89.4355 111.324L97.1454 119.034C98.5122 120.4 98.5122 122.617 97.1454 123.983C95.7785 125.35 93.5625 125.35 92.1956 123.983L84.4857 116.273L76.7758 123.983C75.409 125.35 73.1929 125.35 71.8261 123.983C70.4593 122.617 70.4593 120.4 71.8261 119.034L79.536 111.324L71.8261 103.614C70.4593 102.247 70.4593 100.031 71.8261 98.664Z" fill="#fff"/>
<path fill-rule="evenodd" clip-rule="evenodd" d="M72.9977 10.9427C72.9977 13.8171 71.8895 16.4327 70.0769 18.3854C71.8895 20.3381 72.9977 22.9536 72.9977 25.8281C72.9977 28.7025 71.8895 31.3181 70.0769 33.2708C71.8895 35.2235 72.9977 37.839 72.9977 40.7134C72.9977 43.5879 71.8895 46.2034 70.0769 48.1561C71.8895 50.1088 72.9977 52.7244 72.9977 55.5988C72.9977 57.2926 72.6129 58.8964 71.926 60.3278C101.418 65.0543 123.95 90.6158 123.95 121.44C123.95 142.256 113.674 160.672 97.9179 171.892C103.446 173.82 107.412 179.078 107.412 185.263C107.412 193.082 101.074 199.42 93.2557 199.42C90.5235 199.42 87.9721 198.646 85.8088 197.305C83.6905 202.454 78.6244 206.079 72.7115 206.079C68.4621 206.079 64.65 204.207 62.0551 201.242C59.4603 204.207 55.6481 206.079 51.3987 206.079C45.4859 206.079 40.4197 202.454 38.3014 197.305C36.1381 198.646 33.5867 199.42 30.8545 199.42C23.0361 199.42 16.6981 193.082 16.6981 185.263C16.6981 179.078 20.6644 173.82 26.1923 171.892C10.4362 160.673 0.160095 142.256 0.160095 121.44C0.160095 90.6158 22.6922 65.0544 52.1841 60.3278C51.4972 58.8964 51.1124 57.2926 51.1124 55.5988C51.1124 52.7244 52.2207 50.1088 54.0332 48.1561C52.2207 46.2034 51.1124 43.5879 51.1124 40.7134C51.1124 37.839 52.2207 35.2235 54.0332 33.2708C52.2207 31.3181 51.1124 28.7025 51.1124 25.8281C51.1124 22.9536 52.2207 20.3381 54.0332 18.3854C52.2207 16.4327 51.1124 13.8171 51.1124 10.9427C51.1124 4.89921 56.0116 0 62.0551 0C68.0985 0 72.9977 4.89921 72.9977 10.9427ZM62.0551 7C59.8776 7 58.1124 8.7652 58.1124 10.9427C58.1124 13.1202 59.8776 14.8854 62.0551 14.8854C64.2325 14.8854 65.9977 13.1202 65.9977 10.9427C65.9977 8.7652 64.2325 7 62.0551 7ZM58.1124 25.8281C58.1124 23.6506 59.8776 21.8854 62.0551 21.8854C64.2325 21.8854 65.9977 23.6506 65.9977 25.8281C65.9977 28.0056 64.2325 29.7708 62.0551 29.7708C59.8776 29.7708 58.1124 28.0056 58.1124 25.8281ZM62.0551 36.7708C59.8776 36.7708 58.1124 38.536 58.1124 40.7134C58.1124 42.8909 59.8776 44.6561 62.0551 44.6561C64.2325 44.6561 65.9977 42.8909 65.9977 40.7134C65.9977 38.536 64.2325 36.7708 62.0551 36.7708ZM58.1124 55.5988C58.1124 53.4213 59.8776 51.6561 62.0551 51.6561C64.2325 51.6561 65.9977 53.4213 65.9977 55.5988C65.9977 57.7763 64.2325 59.5415 62.0551 59.5415C59.8776 59.5415 58.1124 57.7763 58.1124 55.5988ZM7.1601 121.44C7.1601 91.1223 31.7374 66.545 62.0551 66.545C92.3728 66.545 116.95 91.1223 116.95 121.44C116.95 151.758 92.3728 176.335 62.0551 176.335C31.7374 176.335 7.1601 151.758 7.1601 121.44ZM65.5551 191.922C65.5551 195.875 68.7592 199.079 72.7115 199.079C76.6639 199.079 79.868 195.875 79.868 191.922C79.868 187.97 76.6639 184.766 72.7115 184.766C68.7592 184.766 65.5551 187.97 65.5551 191.922ZM58.5551 191.922C58.5551 187.97 55.3511 184.766 51.3987 184.766C47.4463 184.766 44.2422 187.97 44.2422 191.922C44.2422 195.875 47.4463 199.079 51.3987 199.079C55.3511 199.079 58.5551 195.875 58.5551 191.922ZM93.2557 178.107C89.3033 178.107 86.0993 181.311 86.0993 185.263C86.0993 189.216 89.3033 192.42 93.2557 192.42C97.2081 192.42 100.412 189.216 100.412 185.263C100.412 181.311 97.2081 178.107 93.2557 178.107ZM38.0109 185.263C38.0109 181.311 34.8069 178.107 30.8545 178.107C26.9021 178.107 23.6981 181.311 23.6981 185.263C23.6981 189.216 26.9021 192.42 30.8545 192.42C34.8069 192.42 38.0109 189.216 38.0109 185.263Z" fill="#fff"/>
</svg>
