<svg width="125" height="207" viewBox="0 0 125 207" fill="none" xmlns="http://www.w3.org/2000/svg">
<path d="M26.7611 114.761C26.7611 108.723 31.6559 103.829 37.6939 103.829C43.732 103.829 48.6268 108.723 48.6268 114.761C48.6268 116.694 50.1938 118.261 52.1268 118.261C54.0598 118.261 55.6268 116.694 55.6268 114.761C55.6268 104.857 47.598 96.8286 37.6939 96.8286C27.7899 96.8286 19.7611 104.857 19.7611 114.761C19.7611 116.694 21.3281 118.261 23.2611 118.261C25.1941 118.261 26.7611 116.694 26.7611 114.761Z" fill="#fff"/>
<path d="M87.6761 103.829C81.6381 103.829 76.7433 108.723 76.7433 114.761C76.7433 116.694 75.1763 118.261 73.2433 118.261C71.3103 118.261 69.7433 116.694 69.7433 114.761C69.7433 104.857 77.7721 96.8286 87.6761 96.8286C97.5802 96.8286 105.609 104.857 105.609 114.761C105.609 116.694 104.042 118.261 102.109 118.261C100.176 118.261 98.609 116.694 98.609 114.761C98.609 108.723 93.7142 103.829 87.6761 103.829Z" fill="#fff"/>
<path d="M42.8406 136.169C42.8406 147.128 51.7252 156.013 62.685 156.013C73.6448 156.013 82.5294 147.128 82.5294 136.169C82.5294 134.236 84.0964 132.669 86.0294 132.669C87.9624 132.669 89.5294 134.236 89.5294 136.169C89.5294 150.994 77.5108 163.013 62.685 163.013C47.8592 163.013 35.8406 150.994 35.8406 136.169C35.8406 134.236 37.4076 132.669 39.3406 132.669C41.2736 132.669 42.8406 134.236 42.8406 136.169Z" fill="#fff"/>
<path fill-rule="evenodd" clip-rule="evenodd" d="M73.6277 10.9427C73.6277 13.8171 72.5194 16.4327 70.7068 18.3854C72.5194 20.3381 73.6277 22.9536 73.6277 25.8281C73.6277 28.7025 72.5194 31.3181 70.7068 33.2708C72.5194 35.2235 73.6277 37.839 73.6277 40.7134C73.6277 43.5879 72.5194 46.2034 70.7068 48.1561C72.5194 50.1088 73.6277 52.7244 73.6277 55.5988C73.6277 57.2926 73.2429 58.8964 72.5559 60.3278C102.048 65.0543 124.58 90.6158 124.58 121.44C124.58 142.256 114.304 160.672 98.5479 171.892C104.076 173.82 108.042 179.078 108.042 185.263C108.042 193.082 101.704 199.42 93.8857 199.42C91.1535 199.42 88.6021 198.646 86.4388 197.305C84.3205 202.454 79.2543 206.079 73.3415 206.079C69.092 206.079 65.2799 204.207 62.6851 201.242C60.0902 204.207 56.2781 206.079 52.0286 206.079C46.1158 206.079 41.0497 202.454 38.9314 197.305C36.768 198.646 34.2166 199.42 31.4844 199.42C23.6661 199.42 17.328 193.082 17.328 185.263C17.328 179.078 21.2944 173.82 26.8222 171.892C11.0661 160.673 0.790039 142.256 0.790039 121.44C0.790039 90.6158 23.3221 65.0544 52.8141 60.3278C52.1271 58.8964 51.7423 57.2926 51.7423 55.5988C51.7423 52.7244 52.8506 50.1088 54.6632 48.1561C52.8506 46.2034 51.7423 43.5879 51.7423 40.7134C51.7423 37.839 52.8506 35.2235 54.6632 33.2708C52.8506 31.3181 51.7423 28.7025 51.7423 25.8281C51.7423 22.9536 52.8506 20.3381 54.6632 18.3854C52.8506 16.4327 51.7423 13.8171 51.7423 10.9427C51.7423 4.89921 56.6415 0 62.685 0C68.7285 0 73.6277 4.89921 73.6277 10.9427ZM62.685 7C60.5075 7 58.7423 8.7652 58.7423 10.9427C58.7423 13.1202 60.5075 14.8854 62.685 14.8854C64.8625 14.8854 66.6277 13.1202 66.6277 10.9427C66.6277 8.7652 64.8625 7 62.685 7ZM58.7423 25.8281C58.7423 23.6506 60.5075 21.8854 62.685 21.8854C64.8625 21.8854 66.6277 23.6506 66.6277 25.8281C66.6277 28.0056 64.8625 29.7708 62.685 29.7708C60.5075 29.7708 58.7423 28.0056 58.7423 25.8281ZM62.685 36.7708C60.5075 36.7708 58.7423 38.536 58.7423 40.7134C58.7423 42.8909 60.5075 44.6561 62.685 44.6561C64.8625 44.6561 66.6277 42.8909 66.6277 40.7134C66.6277 38.536 64.8625 36.7708 62.685 36.7708ZM58.7423 55.5988C58.7423 53.4213 60.5075 51.6561 62.685 51.6561C64.8625 51.6561 66.6277 53.4213 66.6277 55.5988C66.6277 57.7763 64.8625 59.5415 62.685 59.5415C60.5075 59.5415 58.7423 57.7763 58.7423 55.5988ZM7.79004 121.44C7.79004 91.1223 32.3674 66.545 62.685 66.545C93.0027 66.545 117.58 91.1223 117.58 121.44C117.58 151.758 93.0027 176.335 62.685 176.335C32.3674 176.335 7.79004 151.758 7.79004 121.44ZM66.1851 191.922C66.1851 195.875 69.3891 199.079 73.3415 199.079C77.2939 199.079 80.4979 195.875 80.4979 191.922C80.4979 187.97 77.2939 184.766 73.3415 184.766C69.3891 184.766 66.1851 187.97 66.1851 191.922ZM59.1851 191.922C59.1851 187.97 55.981 184.766 52.0286 184.766C48.0762 184.766 44.8722 187.97 44.8722 191.922C44.8722 195.875 48.0762 199.079 52.0286 199.079C55.981 199.079 59.1851 195.875 59.1851 191.922ZM93.8857 178.107C89.9333 178.107 86.7292 181.311 86.7292 185.263C86.7292 189.216 89.9333 192.42 93.8857 192.42C97.8381 192.42 101.042 189.216 101.042 185.263C101.042 181.311 97.8381 178.107 93.8857 178.107ZM38.6409 185.263C38.6409 181.311 35.4368 178.107 31.4844 178.107C27.532 178.107 24.328 181.311 24.328 185.263C24.328 189.216 27.532 192.42 31.4844 192.42C35.4368 192.42 38.6409 189.216 38.6409 185.263Z" fill="#fff"/>
</svg>
