<svg width="125" height="207" viewBox="0 0 125 207" fill="none" xmlns="http://www.w3.org/2000/svg">
<path fill-rule="evenodd" clip-rule="evenodd" d="M36.959 95.9149C28.5954 95.9149 21.8154 102.695 21.8154 111.058C21.8154 119.422 28.5954 126.202 36.959 126.202C45.3226 126.202 52.1026 119.422 52.1026 111.058C52.1026 102.695 45.3226 95.9149 36.959 95.9149ZM28.8154 111.058C28.8154 106.561 32.4614 102.915 36.959 102.915C41.4566 102.915 45.1026 106.561 45.1026 111.058C45.1026 115.556 41.4566 119.202 36.959 119.202C32.4614 119.202 28.8154 115.556 28.8154 111.058Z" fill="#fff"/>
<path fill-rule="evenodd" clip-rule="evenodd" d="M72.4276 111.058C72.4276 102.695 79.2076 95.9149 87.5712 95.9149C95.9348 95.9149 102.715 102.695 102.715 111.058C102.715 119.422 95.9348 126.202 87.5712 126.202C79.2076 126.202 72.4276 119.422 72.4276 111.058ZM87.5712 102.915C83.0736 102.915 79.4276 106.561 79.4276 111.058C79.4276 115.556 83.0736 119.202 87.5712 119.202C92.0688 119.202 95.7148 115.556 95.7148 111.058C95.7148 106.561 92.0688 102.915 87.5712 102.915Z" fill="#fff"/>
<path fill-rule="evenodd" clip-rule="evenodd" d="M62.2651 136.237C55.2827 136.237 49.6223 141.897 49.6223 148.879C49.6223 155.862 55.2827 161.522 62.2651 161.522C69.2475 161.522 74.9079 155.862 74.9079 148.879C74.9079 141.897 69.2475 136.237 62.2651 136.237ZM56.6223 148.879C56.6223 145.763 59.1487 143.237 62.2651 143.237C65.3815 143.237 67.9079 145.763 67.9079 148.879C67.9079 151.996 65.3815 154.522 62.2651 154.522C59.1487 154.522 56.6223 151.996 56.6223 148.879Z" fill="#fff"/>
<path fill-rule="evenodd" clip-rule="evenodd" d="M73.2078 10.9427C73.2078 13.8171 72.0995 16.4327 70.2869 18.3854C72.0995 20.3381 73.2078 22.9536 73.2078 25.8281C73.2078 28.7025 72.0995 31.3181 70.2869 33.2708C72.0995 35.2235 73.2078 37.839 73.2078 40.7134C73.2078 43.5879 72.0995 46.2034 70.2869 48.1561C72.0995 50.1088 73.2078 52.7244 73.2078 55.5988C73.2078 57.2926 72.823 58.8964 72.136 60.3278C101.628 65.0543 124.16 90.6158 124.16 121.44C124.16 142.256 113.884 160.672 98.128 171.892C103.656 173.82 107.622 179.078 107.622 185.263C107.622 193.082 101.284 199.42 93.4658 199.42C90.7336 199.42 88.1822 198.646 86.0188 197.305C83.9005 202.454 78.8344 206.079 72.9216 206.079C68.6721 206.079 64.86 204.207 62.2651 201.242C59.6703 204.207 55.8582 206.079 51.6087 206.079C45.6959 206.079 40.6297 202.454 38.5114 197.305C36.3481 198.646 33.7967 199.42 31.0645 199.42C23.2461 199.42 16.9081 193.082 16.9081 185.263C16.9081 179.078 20.8744 173.82 26.4023 171.892C10.6462 160.673 0.370117 142.256 0.370117 121.44C0.370117 90.6158 22.9022 65.0544 52.3942 60.3278C51.7072 58.8964 51.3224 57.2926 51.3224 55.5988C51.3224 52.7244 52.4307 50.1088 54.2432 48.1561C52.4307 46.2034 51.3224 43.5879 51.3224 40.7134C51.3224 37.839 52.4307 35.2235 54.2432 33.2708C52.4307 31.3181 51.3224 28.7025 51.3224 25.8281C51.3224 22.9536 52.4307 20.3381 54.2432 18.3854C52.4307 16.4327 51.3224 13.8171 51.3224 10.9427C51.3224 4.89921 56.2216 0 62.2651 0C68.3086 0 73.2078 4.89921 73.2078 10.9427ZM62.2651 7C60.0876 7 58.3224 8.7652 58.3224 10.9427C58.3224 13.1202 60.0876 14.8854 62.2651 14.8854C64.4426 14.8854 66.2078 13.1202 66.2078 10.9427C66.2078 8.7652 64.4426 7 62.2651 7ZM58.3224 25.8281C58.3224 23.6506 60.0876 21.8854 62.2651 21.8854C64.4426 21.8854 66.2078 23.6506 66.2078 25.8281C66.2078 28.0056 64.4426 29.7708 62.2651 29.7708C60.0876 29.7708 58.3224 28.0056 58.3224 25.8281ZM62.2651 36.7708C60.0876 36.7708 58.3224 38.536 58.3224 40.7134C58.3224 42.8909 60.0876 44.6561 62.2651 44.6561C64.4426 44.6561 66.2078 42.8909 66.2078 40.7134C66.2078 38.536 64.4426 36.7708 62.2651 36.7708ZM58.3224 55.5988C58.3224 53.4213 60.0876 51.6561 62.2651 51.6561C64.4426 51.6561 66.2078 53.4213 66.2078 55.5988C66.2078 57.7763 64.4426 59.5415 62.2651 59.5415C60.0876 59.5415 58.3224 57.7763 58.3224 55.5988ZM7.37012 121.44C7.37012 91.1223 31.9474 66.545 62.2651 66.545C92.5828 66.545 117.16 91.1223 117.16 121.44C117.16 151.758 92.5828 176.335 62.2651 176.335C31.9474 176.335 7.37012 151.758 7.37012 121.44ZM65.7651 191.922C65.7651 195.875 68.9692 199.079 72.9216 199.079C76.874 199.079 80.078 195.875 80.078 191.922C80.078 187.97 76.874 184.766 72.9216 184.766C68.9692 184.766 65.7651 187.97 65.7651 191.922ZM58.7651 191.922C58.7651 187.97 55.5611 184.766 51.6087 184.766C47.6563 184.766 44.4523 187.97 44.4523 191.922C44.4523 195.875 47.6563 199.079 51.6087 199.079C55.5611 199.079 58.7651 195.875 58.7651 191.922ZM93.4658 178.107C89.5134 178.107 86.3093 181.311 86.3093 185.263C86.3093 189.216 89.5134 192.42 93.4658 192.42C97.4182 192.42 100.622 189.216 100.622 185.263C100.622 181.311 97.4182 178.107 93.4658 178.107ZM38.2209 185.263C38.2209 181.311 35.0169 178.107 31.0645 178.107C27.1121 178.107 23.9081 181.311 23.9081 185.263C23.9081 189.216 27.1121 192.42 31.0645 192.42C35.0169 192.42 38.2209 189.216 38.2209 185.263Z" fill="#fff"/>
</svg>
