<svg width="124" height="207" viewBox="0 0 124 207" fill="none" xmlns="http://www.w3.org/2000/svg">
<path d="M25.9711 114.761C25.9711 108.723 30.8659 103.829 36.9039 103.829C42.942 103.829 47.8368 108.723 47.8368 114.761C47.8368 116.694 49.4038 118.261 51.3368 118.261C53.2698 118.261 54.8368 116.694 54.8368 114.761C54.8368 104.857 46.808 96.8286 36.9039 96.8286C26.9999 96.8286 18.9711 104.857 18.9711 114.761C18.9711 116.694 20.5381 118.261 22.4711 118.261C24.4041 118.261 25.9711 116.694 25.9711 114.761Z" fill="#fff"/>
<path d="M86.8861 103.829C80.848 103.829 75.9532 108.723 75.9532 114.761C75.9532 116.694 74.3862 118.261 72.4532 118.261C70.5202 118.261 68.9532 116.694 68.9532 114.761C68.9532 104.857 76.982 96.8286 86.8861 96.8286C96.7901 96.8286 104.819 104.857 104.819 114.761C104.819 116.694 103.252 118.261 101.319 118.261C99.3859 118.261 97.8189 116.694 97.8189 114.761C97.8189 108.723 92.9241 103.829 86.8861 103.829Z" fill="#fff"/>
<path fill-rule="evenodd" clip-rule="evenodd" d="M61.895 163.013C47.0693 163.013 35.0506 150.994 35.0506 136.169C35.0506 134.236 36.6176 132.669 38.5506 132.669H85.2394C87.1724 132.669 88.7394 134.236 88.7394 136.169C88.7394 150.994 76.7208 163.013 61.895 163.013ZM61.895 156.013C71.6606 156.013 79.7785 148.959 81.4318 139.669H42.3583C44.0115 148.959 52.1295 156.013 61.895 156.013Z" fill="#fff"/>
<path fill-rule="evenodd" clip-rule="evenodd" d="M72.8376 10.9427C72.8376 13.8171 71.7293 16.4327 69.9168 18.3854C71.7293 20.3381 72.8376 22.9536 72.8376 25.8281C72.8376 28.7025 71.7293 31.3181 69.9168 33.2708C71.7293 35.2235 72.8376 37.839 72.8376 40.7134C72.8376 43.5879 71.7293 46.2034 69.9168 48.1561C71.7293 50.1088 72.8376 52.7244 72.8376 55.5988C72.8376 57.2926 72.4528 58.8964 71.7659 60.3278C101.258 65.0543 123.79 90.6158 123.79 121.44C123.79 142.256 113.514 160.672 97.7578 171.892C103.286 173.82 107.252 179.078 107.252 185.263C107.252 193.082 100.914 199.42 93.0956 199.42C90.3634 199.42 87.812 198.646 85.6487 197.305C83.5304 202.454 78.4643 206.079 72.5514 206.079C68.302 206.079 64.4899 204.207 61.895 201.242C59.3001 204.207 55.488 206.079 51.2386 206.079C45.3257 206.079 40.2596 202.454 38.1413 197.305C35.978 198.646 33.4266 199.42 30.6944 199.42C22.876 199.42 16.5379 193.082 16.5379 185.263C16.5379 179.078 20.5043 173.82 26.0322 171.892C10.2761 160.673 0 142.256 0 121.44C0 90.6159 22.5321 65.0544 52.024 60.3278C51.3371 58.8964 50.9523 57.2926 50.9523 55.5988C50.9523 52.7244 52.0605 50.1088 53.8731 48.1561C52.0605 46.2034 50.9523 43.5879 50.9523 40.7134C50.9523 37.839 52.0605 35.2235 53.8731 33.2708C52.0605 31.3181 50.9523 28.7025 50.9523 25.8281C50.9523 22.9536 52.0605 20.3381 53.8731 18.3854C52.0605 16.4327 50.9523 13.8171 50.9523 10.9427C50.9523 4.89921 55.8515 0 61.8949 0C67.9384 0 72.8376 4.89921 72.8376 10.9427ZM61.8949 7C59.7175 7 57.9523 8.7652 57.9523 10.9427C57.9523 13.1202 59.7175 14.8854 61.8949 14.8854C64.0724 14.8854 65.8376 13.1202 65.8376 10.9427C65.8376 8.7652 64.0724 7 61.8949 7ZM57.9523 25.8281C57.9523 23.6506 59.7175 21.8854 61.8949 21.8854C64.0724 21.8854 65.8376 23.6506 65.8376 25.8281C65.8376 28.0056 64.0724 29.7708 61.8949 29.7708C59.7175 29.7708 57.9523 28.0056 57.9523 25.8281ZM61.8949 36.7708C59.7175 36.7708 57.9523 38.536 57.9523 40.7134C57.9523 42.8909 59.7175 44.6561 61.8949 44.6561C64.0724 44.6561 65.8376 42.8909 65.8376 40.7134C65.8376 38.536 64.0724 36.7708 61.8949 36.7708ZM57.9523 55.5988C57.9523 53.4213 59.7175 51.6561 61.8949 51.6561C64.0724 51.6561 65.8376 53.4213 65.8376 55.5988C65.8376 57.7763 64.0724 59.5415 61.8949 59.5415C59.7175 59.5415 57.9523 57.7763 57.9523 55.5988ZM7 121.44C7 91.1223 31.5773 66.545 61.895 66.545C92.2127 66.545 116.79 91.1223 116.79 121.44C116.79 151.758 92.2127 176.335 61.895 176.335C31.5773 176.335 7 151.758 7 121.44ZM65.395 191.922C65.395 195.875 68.599 199.079 72.5514 199.079C76.5038 199.079 79.7079 195.875 79.7079 191.922C79.7079 187.97 76.5038 184.766 72.5514 184.766C68.599 184.766 65.395 187.97 65.395 191.922ZM58.395 191.922C58.395 187.97 55.191 184.766 51.2386 184.766C47.2862 184.766 44.0821 187.97 44.0821 191.922C44.0821 195.875 47.2862 199.079 51.2386 199.079C55.191 199.079 58.395 195.875 58.395 191.922ZM93.0956 178.107C89.1432 178.107 85.9392 181.311 85.9392 185.263C85.9392 189.216 89.1432 192.42 93.0956 192.42C97.048 192.42 100.252 189.216 100.252 185.263C100.252 181.311 97.048 178.107 93.0956 178.107ZM37.8508 185.263C37.8508 181.311 34.6468 178.107 30.6944 178.107C26.742 178.107 23.5379 181.311 23.5379 185.263C23.5379 189.216 26.742 192.42 30.6944 192.42C34.6468 192.42 37.8508 189.216 37.8508 185.263Z" fill="#fff"/>
</svg>
