<svg width="125" height="207" viewBox="0 0 125 207" fill="none" xmlns="http://www.w3.org/2000/svg">
<path fill-rule="evenodd" clip-rule="evenodd" d="M38.1089 151.179H58.8321C59.2661 154.18 60.2933 157.227 62.1333 159.81C64.8068 163.564 69.0471 166.099 74.8315 166.099C80.616 166.099 84.8563 163.564 87.5298 159.81C90.096 156.207 91.0811 151.702 91.0811 147.679C91.0811 145.746 89.5141 144.179 87.5811 144.179H38.1089C36.176 144.179 34.6089 145.746 34.6089 147.679C34.6089 149.612 36.176 151.179 38.1089 151.179ZM83.7268 151.179H65.9363C66.2969 152.899 66.9317 154.481 67.8349 155.749C69.2211 157.695 71.3556 159.099 74.8315 159.099C78.3075 159.099 80.442 157.695 81.8282 155.749C82.7314 154.481 83.3661 152.899 83.7268 151.179Z" fill="#fff"/>
<path d="M27.7547 98.664C29.1216 97.2972 31.3377 97.2972 32.7045 98.664L40.4144 106.374L48.1243 98.6641C49.4911 97.2972 51.7072 97.2972 53.074 98.6641C54.4409 100.031 54.4409 102.247 53.074 103.614L45.3641 111.324L53.074 119.034C54.4409 120.4 54.4409 122.617 53.074 123.983C51.7072 125.35 49.4911 125.35 48.1243 123.983L40.4144 116.273L32.7045 123.983C31.3377 125.35 29.1216 125.35 27.7547 123.983C26.3879 122.617 26.3879 120.4 27.7547 119.034L35.4646 111.324L27.7547 103.614C26.3879 102.247 26.3879 100.031 27.7547 98.664Z" fill="#fff"/>
<path d="M72.6162 98.664C73.983 97.2972 76.1991 97.2972 77.5659 98.664L85.2758 106.374L92.9857 98.6641C94.3526 97.2972 96.5686 97.2972 97.9355 98.6641C99.3023 100.031 99.3023 102.247 97.9355 103.614L90.2256 111.324L97.9355 119.034C99.3023 120.4 99.3023 122.617 97.9355 123.983C96.5686 125.35 94.3526 125.35 92.9857 123.983L85.2758 116.273L77.5659 123.983C76.1991 125.35 73.983 125.35 72.6162 123.983C71.2494 122.617 71.2494 120.4 72.6162 119.034L80.3261 111.324L72.6162 103.614C71.2494 102.247 71.2494 100.031 72.6162 98.664Z" fill="#fff"/>
<path fill-rule="evenodd" clip-rule="evenodd" d="M73.7877 10.9427C73.7877 13.8171 72.6794 16.4327 70.8668 18.3854C72.6794 20.3381 73.7877 22.9536 73.7877 25.8281C73.7877 28.7025 72.6794 31.3181 70.8668 33.2708C72.6794 35.2235 73.7877 37.839 73.7877 40.7134C73.7877 43.5879 72.6794 46.2034 70.8668 48.1561C72.6794 50.1088 73.7877 52.7244 73.7877 55.5988C73.7877 57.2926 73.4028 58.8964 72.7159 60.3278C102.208 65.0543 124.74 90.6158 124.74 121.44C124.74 142.256 114.464 160.673 98.7079 171.892C104.236 173.82 108.202 179.078 108.202 185.263C108.202 193.082 101.864 199.42 94.0457 199.42C91.3135 199.42 88.7621 198.646 86.5987 197.305C84.4804 202.454 79.4143 206.079 73.5015 206.079C69.252 206.079 65.4399 204.207 62.845 201.242C60.2502 204.207 56.438 206.079 52.1886 206.079C46.2758 206.079 41.2096 202.454 39.0913 197.305C36.928 198.646 34.3766 199.42 31.6444 199.42C23.826 199.42 17.488 193.082 17.488 185.263C17.488 179.078 21.4543 173.82 26.9822 171.892C11.2262 160.672 0.950073 142.256 0.950073 121.44C0.950073 90.6159 23.4821 65.0544 52.9741 60.3278C52.2871 58.8964 51.9023 57.2926 51.9023 55.5988C51.9023 52.7244 53.0106 50.1088 54.8231 48.1561C53.0106 46.2034 51.9023 43.5879 51.9023 40.7134C51.9023 37.839 53.0106 35.2235 54.8231 33.2708C53.0106 31.3181 51.9023 28.7025 51.9023 25.8281C51.9023 22.9536 53.0106 20.3381 54.8231 18.3854C53.0106 16.4327 51.9023 13.8171 51.9023 10.9427C51.9023 4.89921 56.8015 0 62.845 0C68.8885 0 73.7877 4.89921 73.7877 10.9427ZM62.845 7C60.6675 7 58.9023 8.7652 58.9023 10.9427C58.9023 13.1202 60.6675 14.8854 62.845 14.8854C65.0225 14.8854 66.7877 13.1202 66.7877 10.9427C66.7877 8.7652 65.0225 7 62.845 7ZM58.9023 25.8281C58.9023 23.6506 60.6675 21.8854 62.845 21.8854C65.0225 21.8854 66.7877 23.6506 66.7877 25.8281C66.7877 28.0056 65.0225 29.7708 62.845 29.7708C60.6675 29.7708 58.9023 28.0056 58.9023 25.8281ZM62.845 36.7708C60.6675 36.7708 58.9023 38.536 58.9023 40.7134C58.9023 42.8909 60.6675 44.6561 62.845 44.6561C65.0225 44.6561 66.7877 42.8909 66.7877 40.7134C66.7877 38.536 65.0225 36.7708 62.845 36.7708ZM58.9023 55.5988C58.9023 53.4213 60.6675 51.6561 62.845 51.6561C65.0225 51.6561 66.7877 53.4213 66.7877 55.5988C66.7877 57.7763 65.0225 59.5415 62.845 59.5415C60.6675 59.5415 58.9023 57.7763 58.9023 55.5988ZM7.95007 121.44C7.95007 91.1223 32.5274 66.545 62.8451 66.545C93.1627 66.545 117.74 91.1223 117.74 121.44C117.74 151.758 93.1627 176.335 62.8451 176.335C32.5274 176.335 7.95007 151.758 7.95007 121.44ZM66.345 191.922C66.345 195.875 69.5491 199.079 73.5015 199.079C77.4539 199.079 80.6579 195.875 80.6579 191.922C80.6579 187.97 77.4539 184.766 73.5015 184.766C69.5491 184.766 66.345 187.97 66.345 191.922ZM59.345 191.922C59.345 187.97 56.141 184.766 52.1886 184.766C48.2362 184.766 45.0322 187.97 45.0322 191.922C45.0322 195.875 48.2362 199.079 52.1886 199.079C56.141 199.079 59.345 195.875 59.345 191.922ZM94.0457 178.107C90.0933 178.107 86.8892 181.311 86.8892 185.263C86.8892 189.216 90.0933 192.42 94.0457 192.42C97.998 192.42 101.202 189.216 101.202 185.263C101.202 181.311 97.998 178.107 94.0457 178.107ZM38.8008 185.263C38.8008 181.311 35.5968 178.107 31.6444 178.107C27.692 178.107 24.488 181.311 24.488 185.263C24.488 189.216 27.692 192.42 31.6444 192.42C35.5968 192.42 38.8008 189.216 38.8008 185.263Z" fill="#fff"/>
</svg>
