<svg width="24" height="24" viewBox="0 0 24 24" fill="none" xmlns="http://www.w3.org/2000/svg">
<path fill-rule="evenodd" clip-rule="evenodd" d="M8.06702 0.715088C6.4028 0.715088 5.2558 0.98857 4.4919 1.29872C4.11061 1.45353 3.82909 1.61576 3.6301 1.75321C3.50261 1.84128 3.37779 1.93733 3.27141 2.05049C3.09706 2.23595 3 2.4809 3 2.73544V14.9796C3 14.983 3.00002 14.9864 3.00005 14.9898C3.00002 14.9932 3 14.9966 3 15V22C3 22.5523 3.44772 23 4 23C4.55228 23 5 22.5523 5 22V15.5151C5.07316 15.4783 5.16019 15.4384 5.26218 15.3975C5.76647 15.1951 6.65503 14.9593 8.06702 14.9593C9.56314 14.9593 10.6744 15.3967 11.8888 15.9027C11.9364 15.9226 11.9843 15.9426 12.0324 15.9627C13.1981 16.4495 14.516 17 16.2011 17C17.8393 17 18.9843 16.7256 19.7509 16.4178C20.1334 16.2643 20.4172 16.1043 20.6176 15.9702C20.9105 15.7743 20.9855 15.6767 20.9764 15.6855C21.1632 15.4981 21.2681 15.2443 21.2681 14.9796V2.73544C21.2681 2.33066 21.024 1.9658 20.6499 1.81122C20.2853 1.66055 19.8669 1.73886 19.5814 2.00845C19.5731 2.01529 19.5485 2.03496 19.5055 2.06372C19.4199 2.121 19.2589 2.21601 19.0059 2.31759C18.5016 2.52002 17.613 2.75579 16.2011 2.75579C14.9157 2.75579 13.9104 2.3388 12.6728 1.82548L12.6396 1.81173C11.4029 1.29879 9.97107 0.715088 8.06702 0.715088ZM5 13.37V3.26246C5.0682 3.22787 5.14924 3.19039 5.24427 3.15181C5.73694 2.95178 6.62345 2.71509 8.06702 2.71509C9.53991 2.71509 10.65 3.15174 11.8734 3.65915C11.9179 3.67757 11.9625 3.69613 12.0074 3.71478C13.1819 4.20294 14.5121 4.75579 16.2011 4.75579C17.5256 4.75579 18.5277 4.57642 19.2681 4.34507V14.4442C19.1949 14.481 19.1079 14.5209 19.0059 14.5618C18.5016 14.7642 17.613 15 16.2011 15C14.922 15 13.9315 14.5872 12.7057 14.0764L12.658 14.0566C11.4235 13.5422 9.99288 12.9593 8.06702 12.9593C6.74247 12.9593 5.74039 13.1387 5 13.37Z" fill="#fff"/>
</svg>
