<svg width="24" height="24" viewBox="0 0 24 24" fill="none" xmlns="http://www.w3.org/2000/svg">
<path fill-rule="evenodd" clip-rule="evenodd" d="M15.4091 1.82764C13.7522 1.82764 12.4091 3.17078 12.4091 4.82764V19.1725C12.4091 20.8293 13.7523 22.1725 15.4091 22.1725H19.0183C20.6751 22.1725 22.0183 20.8293 22.0183 19.1725V4.82764C22.0183 3.17078 20.6751 1.82764 19.0183 1.82764H15.4091ZM14.4091 4.82764C14.4091 4.27535 14.8568 3.82764 15.4091 3.82764H19.0183C19.5706 3.82764 20.0183 4.27535 20.0183 4.82764V19.1725C20.0183 19.7248 19.5706 20.1725 19.0183 20.1725H15.4091C14.8568 20.1725 14.4091 19.7248 14.4091 19.1725V4.82764Z" fill="#fff"/>
<path fill-rule="evenodd" clip-rule="evenodd" d="M4.98171 8.19434C3.32486 8.19434 1.98171 9.53749 1.98171 11.1943V19.1724C1.98171 20.8293 3.32486 22.1724 4.98171 22.1724H8.59089C10.2477 22.1724 11.5909 20.8293 11.5909 19.1724V11.1943C11.5909 9.53748 10.2477 8.19434 8.59089 8.19434H4.98171ZM3.98171 11.1943C3.98171 10.6421 4.42943 10.1943 4.98171 10.1943H8.59089C9.14318 10.1943 9.59089 10.6421 9.59089 11.1943V19.1724C9.59089 19.7247 9.14318 20.1724 8.59089 20.1724H4.98171C4.42943 20.1724 3.98171 19.7247 3.98171 19.1724V11.1943Z" fill="#fff"/>
</svg>
