<svg width="103" height="45" viewBox="0 0 103 45" fill="none" xmlns="http://www.w3.org/2000/svg">
<path d="M41.1721 37.7136C41.1721 37.4048 41.0635 37.0905 40.8234 36.854C40.5876 36.6217 40.1772 36.4177 39.4852 36.4177C38.7932 36.4177 38.3828 36.6217 38.147 36.854C37.9069 37.0905 37.7983 37.4048 37.7983 37.7136C37.7983 37.9898 37.5744 38.2136 37.2983 38.2136C37.0221 38.2136 36.7983 37.9898 36.7983 37.7136C36.7983 37.175 36.9888 36.5912 37.4451 36.1417C37.9057 35.6879 38.5887 35.4177 39.4852 35.4177C40.3816 35.4177 41.0646 35.6879 41.5252 36.1417C41.9815 36.5912 42.1721 37.175 42.1721 37.7136C42.1721 37.9898 41.9483 38.2136 41.6721 38.2136C41.396 38.2136 41.1721 37.9898 41.1721 37.7136Z" fill="#fff"/>
<path d="M35.2059 31.1533C35.4012 30.9581 35.7177 30.9581 35.913 31.1533L36.7853 32.0257L37.6576 31.1533C37.8529 30.958 38.1695 30.958 38.3648 31.1533C38.56 31.3486 38.56 31.6652 38.3648 31.8604L37.4924 32.7328L38.3648 33.6051C38.56 33.8004 38.56 34.1169 38.3648 34.3122C38.1695 34.5075 37.8529 34.5075 37.6576 34.3122L36.7853 33.4399L35.913 34.3122C35.7177 34.5074 35.4012 34.5074 35.2059 34.3122C35.0106 34.1169 35.0106 33.8003 35.2059 33.6051L36.0782 32.7328L35.2059 31.8605C35.0106 31.6652 35.0106 31.3486 35.2059 31.1533Z" fill="#fff"/>
<path d="M40.6056 31.1533C40.8008 30.958 41.1174 30.958 41.3127 31.1533L42.185 32.0256L43.0573 31.1532C43.2526 30.958 43.5692 30.958 43.7644 31.1532C43.9597 31.3485 43.9597 31.6651 43.7644 31.8604L42.8921 32.7327L43.7644 33.605C43.9597 33.8003 43.9597 34.1169 43.7644 34.3121C43.5692 34.5074 43.2526 34.5074 43.0573 34.3121L42.185 33.4398L41.3127 34.3121C41.1174 34.5074 40.8008 34.5074 40.6056 34.3121C40.4103 34.1168 40.4103 33.8003 40.6056 33.605L41.4779 32.7327L40.6056 31.8604C40.4103 31.6651 40.4103 31.3485 40.6056 31.1533Z" fill="#fff"/>
<path fill-rule="evenodd" clip-rule="evenodd" d="M42.9506 0.450378C43.8859 0.450378 44.6442 1.20862 44.6442 2.14396C44.6442 2.93747 44.0984 3.60352 43.3618 3.78727C43.7999 4.0934 44.0864 4.60145 44.0864 5.17643C44.0864 5.71647 43.8337 6.19746 43.44 6.50758C44.1545 6.70622 44.679 7.36159 44.679 8.13944C44.679 8.37877 44.6293 8.6065 44.5398 8.8129C44.6458 8.7921 44.7554 8.78119 44.8676 8.78119C45.8029 8.78119 46.5612 9.53943 46.5612 10.4748C46.5612 10.9026 46.4025 11.2934 46.1408 11.5916C46.8645 11.7841 47.3977 12.444 47.3977 13.2283C47.3977 13.8418 47.0715 14.3791 46.5831 14.6762C46.9128 14.9852 47.1189 15.4247 47.1189 15.9123C47.1189 16.7084 46.5696 17.3762 45.8293 17.5574C46.0283 17.835 46.1455 18.1754 46.1455 18.5431C46.1455 19.4784 45.3873 20.2367 44.4519 20.2367C44.3437 20.2367 44.2378 20.2265 44.1352 20.2071C44.1536 20.3071 44.1632 20.4102 44.1632 20.5155C44.1632 21.4509 43.405 22.2091 42.4696 22.2091C42.3532 22.2091 42.2394 22.1974 42.1296 22.175C42.2231 22.3852 42.2751 22.618 42.2751 22.863C42.2751 23.7168 41.6433 24.423 40.8217 24.5396C41.0455 24.8267 41.1788 25.1878 41.1788 25.5801C41.1788 26.0093 41.0191 26.4013 40.7559 26.6998C44.3155 27.3038 47.026 30.4024 47.026 34.134C47.026 36.7179 45.7264 38.9982 43.7452 40.3571C44.296 40.6366 44.6734 41.2083 44.6734 41.8683C44.6734 42.8036 43.9152 43.5618 42.9798 43.5618C42.6966 43.5618 42.4297 43.4923 42.1951 43.3694C41.9174 43.9257 41.3427 44.3077 40.6788 44.3077C40.2132 44.3077 39.7914 44.1198 39.4852 43.8156C39.1791 44.1198 38.7573 44.3077 38.2916 44.3077C37.6277 44.3077 37.053 43.9257 36.7754 43.3694C36.5408 43.4923 36.2738 43.5618 35.9906 43.5618C35.0553 43.5618 34.297 42.8036 34.297 41.8683C34.297 41.2083 34.6745 40.6366 35.2253 40.3571C33.2441 38.9982 31.9445 36.7179 31.9445 34.134C31.9445 30.4023 34.655 27.3038 38.2146 26.6998C37.9514 26.4013 37.7917 26.0093 37.7917 25.5801C37.7917 24.7262 38.4235 24.02 39.2451 23.9034C39.0213 23.6163 38.888 23.2552 38.888 22.863C38.888 21.9276 39.6462 21.1694 40.5816 21.1694C40.698 21.1694 40.8118 21.1811 40.9216 21.2035C40.828 20.9933 40.776 20.7605 40.776 20.5155C40.776 19.5802 41.5343 18.822 42.4696 18.822C42.5779 18.822 42.6838 18.8321 42.7864 18.8515C42.768 18.7515 42.7583 18.6484 42.7583 18.5431C42.7583 17.7469 43.3077 17.0791 44.048 16.898C43.8489 16.6203 43.7317 16.28 43.7317 15.9123C43.7317 15.2988 44.0579 14.7615 44.5463 14.4644C44.2166 14.1553 44.0105 13.7159 44.0105 13.2283C44.0105 12.8004 44.1692 12.4096 44.4309 12.1115C43.7072 11.9189 43.174 11.2591 43.174 10.4748C43.174 10.2354 43.2236 10.0077 43.3132 9.80132C43.2071 9.82212 43.0975 9.83303 42.9854 9.83303C42.05 9.83303 41.2918 9.07478 41.2918 8.13944C41.2918 7.59941 41.5446 7.11841 41.9382 6.8083C41.2237 6.60966 40.6993 5.95429 40.6993 5.17643C40.6993 4.38292 41.245 3.71687 41.9816 3.53313C41.5435 3.227 41.257 2.71894 41.257 2.14396C41.257 1.20862 42.0152 0.450378 42.9506 0.450378ZM43.6442 2.14396C43.6442 1.76091 43.3336 1.45038 42.9506 1.45038C42.5675 1.45038 42.257 1.76091 42.257 2.14396C42.257 2.52702 42.5675 2.83754 42.9506 2.83754C43.3336 2.83754 43.6442 2.52702 43.6442 2.14396ZM42.3928 4.48285C42.7759 4.48285 43.0864 4.79338 43.0864 5.17643C43.0864 5.55949 42.7759 5.87001 42.3928 5.87001C42.0098 5.87001 41.6993 5.55949 41.6993 5.17643C41.6993 4.79338 42.0098 4.48285 42.3928 4.48285ZM43.679 8.13944C43.679 7.75639 43.3684 7.44586 42.9854 7.44586C42.6023 7.44586 42.2918 7.75639 42.2918 8.13944C42.2918 8.5225 42.6023 8.83303 42.9854 8.83303C43.3684 8.83303 43.679 8.5225 43.679 8.13944ZM44.8676 9.78119C45.2506 9.78119 45.5612 10.0917 45.5612 10.4748C45.5612 10.8578 45.2506 11.1684 44.8676 11.1684C44.4845 11.1684 44.174 10.8578 44.174 10.4748C44.174 10.0917 44.4845 9.78119 44.8676 9.78119ZM46.3977 13.2283C46.3977 12.8453 46.0872 12.5347 45.7041 12.5347C45.3211 12.5347 45.0105 12.8453 45.0105 13.2283C45.0105 13.6114 45.3211 13.9219 45.7041 13.9219C46.0872 13.9219 46.3977 13.6114 46.3977 13.2283ZM45.4253 15.2187C45.8084 15.2187 46.1189 15.5292 46.1189 15.9123C46.1189 16.2953 45.8084 16.6059 45.4253 16.6059C45.0423 16.6059 44.7317 16.2953 44.7317 15.9123C44.7317 15.5292 45.0423 15.2187 45.4253 15.2187ZM45.1455 18.5431C45.1455 18.16 44.835 17.8495 44.4519 17.8495C44.0689 17.8495 43.7583 18.16 43.7583 18.5431C43.7583 18.9261 44.0689 19.2367 44.4519 19.2367C44.835 19.2367 45.1455 18.9261 45.1455 18.5431ZM42.4696 19.822C42.8527 19.822 43.1632 20.1325 43.1632 20.5155C43.1632 20.8986 42.8527 21.2091 42.4696 21.2091C42.0866 21.2091 41.776 20.8986 41.776 20.5155C41.776 20.1325 42.0866 19.822 42.4696 19.822ZM41.2751 22.863C41.2751 22.4799 40.9646 22.1694 40.5816 22.1694C40.1985 22.1694 39.888 22.4799 39.888 22.863C39.888 23.246 40.1985 23.5565 40.5816 23.5565C40.9646 23.5565 41.2751 23.246 41.2751 22.863ZM39.4853 24.8865C39.8683 24.8865 40.1788 25.197 40.1788 25.5801C40.1788 25.9631 39.8683 26.2736 39.4853 26.2736C39.1022 26.2736 38.7917 25.9631 38.7917 25.5801C38.7917 25.197 39.1022 24.8865 39.4853 24.8865ZM39.4852 28.5932C36.4251 28.5932 33.9445 31.0739 33.9445 34.134C33.9445 37.1941 36.4251 39.6747 39.4852 39.6747C42.5453 39.6747 45.026 37.1941 45.026 34.134C45.026 31.0739 42.5453 28.5932 39.4852 28.5932ZM38.9852 42.6141C38.9852 42.2311 38.6747 41.9205 38.2916 41.9205C37.9086 41.9205 37.5981 42.2311 37.5981 42.6141C37.5981 42.9972 37.9086 43.3077 38.2916 43.3077C38.6747 43.3077 38.9852 42.9972 38.9852 42.6141ZM39.9852 42.6141C39.9852 42.9972 40.2958 43.3077 40.6788 43.3077C41.0619 43.3077 41.3724 42.9972 41.3724 42.6141C41.3724 42.2311 41.0619 41.9205 40.6788 41.9205C40.2958 41.9205 39.9852 42.2311 39.9852 42.6141ZM42.9798 41.1747C42.5968 41.1747 42.2863 41.4852 42.2863 41.8683C42.2863 42.2513 42.5968 42.5618 42.9798 42.5618C43.3629 42.5618 43.6734 42.2513 43.6734 41.8683C43.6734 41.4852 43.3629 41.1747 42.9798 41.1747ZM36.6842 41.8683C36.6842 41.4852 36.3737 41.1747 35.9906 41.1747C35.6076 41.1747 35.297 41.4852 35.297 41.8683C35.297 42.2513 35.6076 42.5618 35.9906 42.5618C36.3737 42.5618 36.6842 42.2513 36.6842 41.8683Z" fill="#fff"/>
<path fill-rule="evenodd" clip-rule="evenodd" d="M87.0507 39.4389C87.5173 39.6069 87.9933 39.6909 88.4787 39.6909C88.852 39.6909 89.1973 39.6349 89.5147 39.5229C89.8413 39.4109 90.14 39.2662 90.4107 39.0889C90.4107 39.2569 90.4153 39.4296 90.4247 39.6069L92.8467 39.4249C92.8093 38.8182 92.7767 38.1462 92.7487 37.4089C92.73 36.6622 92.7207 35.8782 92.7207 35.0569C92.7207 34.1796 92.73 33.2789 92.7487 32.3549C92.7767 31.4309 92.8187 30.5255 92.8747 29.6389C92.9307 28.7429 92.996 27.9075 93.0707 27.1329L90.7187 26.9789C90.6627 27.6509 90.6113 28.3322 90.5647 29.0229C90.5273 29.7135 90.4947 30.3995 90.4667 31.0809C90.2333 31.0062 89.9813 30.9502 89.7107 30.9129C89.44 30.8662 89.1553 30.8429 88.8567 30.8429C88.3527 30.8429 87.8487 30.9362 87.3447 31.1229C86.8407 31.3095 86.3833 31.5942 85.9727 31.9769C85.562 32.3502 85.2307 32.8309 84.9787 33.4189C84.736 33.9976 84.6147 34.6882 84.6147 35.4909C84.6147 36.2002 84.722 36.8209 84.9367 37.3529C85.1513 37.8755 85.4407 38.3095 85.8047 38.6549C86.178 39.0095 86.5933 39.2709 87.0507 39.4389ZM87.1487 36.5129C86.962 36.2329 86.8687 35.8502 86.8687 35.3649C86.8687 34.9169 86.934 34.5529 87.0647 34.2729C87.2047 33.9836 87.3773 33.7595 87.5827 33.6009C87.7973 33.4329 88.026 33.3162 88.2687 33.2509C88.5113 33.1856 88.74 33.1529 88.9547 33.1529C89.468 33.1529 89.944 33.3442 90.3827 33.7269C90.364 34.5202 90.3547 35.2949 90.3547 36.0509V36.3729C90.0933 36.6996 89.8133 36.9282 89.5147 37.0589C89.216 37.1895 88.9173 37.2549 88.6187 37.2549C88.3667 37.2549 88.1053 37.1989 87.8347 37.0869C87.564 36.9749 87.3353 36.7836 87.1487 36.5129Z" fill="#fff"/>
<path d="M62.8619 38.9489C63.7019 39.4529 64.6913 39.7049 65.8299 39.7049C66.7726 39.7049 67.5893 39.5369 68.2799 39.2009C68.9706 38.8649 69.5726 38.3842 70.0859 37.7589C70.5993 37.1335 71.0613 36.3962 71.4719 35.5469L69.1759 34.5109C68.9333 35.0802 68.6719 35.5795 68.3919 36.0089C68.1119 36.4289 67.7619 36.7556 67.3419 36.9889C66.9313 37.2222 66.3993 37.3389 65.7459 37.3389C65.1579 37.3389 64.6679 37.2362 64.2759 37.0309C63.8933 36.8162 63.5853 36.5315 63.3519 36.1769C63.1279 35.8222 62.9693 35.4302 62.8759 35.0009C62.7826 34.5715 62.7359 34.1376 62.7359 33.6989C62.7359 33.2882 62.7826 32.8449 62.8759 32.3689C62.9693 31.8835 63.1326 31.4262 63.3659 30.9969C63.6086 30.5675 63.9353 30.2129 64.3459 29.9329C64.7566 29.6529 65.2746 29.5129 65.8999 29.5129C66.5066 29.5129 67.0153 29.6342 67.4259 29.8769C67.8366 30.1195 68.1819 30.4275 68.4619 30.8009C68.7419 31.1649 68.9846 31.5382 69.1899 31.9209L71.2199 30.3669C71.1453 30.2549 71.0286 30.0775 70.8699 29.8349C70.7113 29.5829 70.4966 29.3075 70.2259 29.0089C69.9646 28.7102 69.6333 28.4255 69.2319 28.1549C68.8306 27.8749 68.3546 27.6462 67.8039 27.4689C67.2533 27.2822 66.6093 27.1889 65.8719 27.1889C65.0133 27.1889 64.2666 27.3382 63.6319 27.6369C62.9973 27.9262 62.4606 28.3089 62.0219 28.7849C61.5833 29.2609 61.2333 29.7882 60.9719 30.3669C60.7106 30.9362 60.5193 31.5102 60.3979 32.0889C60.2859 32.6582 60.2299 33.1762 60.2299 33.6429C60.2299 34.8749 60.4586 35.9436 60.9159 36.8489C61.3733 37.7542 62.0219 38.4542 62.8619 38.9489Z" fill="#fff"/>
<path fill-rule="evenodd" clip-rule="evenodd" d="M49.2103 39.5509C49.1823 38.9162 49.1683 38.2162 49.1683 37.4509C49.1683 36.7136 49.1823 35.9296 49.2103 35.0989C49.2383 34.2682 49.2803 33.4282 49.3363 32.5789C49.3923 31.7202 49.467 30.8849 49.5603 30.0729C49.411 30.1102 49.2663 30.1475 49.1263 30.1849C48.9956 30.2129 48.8743 30.2455 48.7623 30.2829L48.0483 28.0569C50.307 27.5249 52.1876 27.2589 53.6903 27.2589C56.7423 27.2589 58.2683 28.4209 58.2683 30.7449C58.2683 31.8369 57.9043 32.7049 57.1763 33.3489C56.4483 33.9836 55.3796 34.3849 53.9703 34.5529C54.8196 35.2715 55.6736 35.8642 56.5323 36.3309C57.4003 36.7882 58.2776 37.1755 59.1643 37.4929L57.6243 39.5509C57.1296 39.3736 56.6116 39.1262 56.0703 38.8089C55.529 38.4916 54.9923 38.1415 54.4603 37.7589C53.9283 37.3762 53.4196 36.9889 52.9343 36.5969C52.4583 36.2049 52.0336 35.8409 51.6603 35.5049C51.651 36.1489 51.6416 36.8022 51.6323 37.4649V39.4949L51.5483 39.5789H50.4003C49.999 39.5882 49.635 39.6069 49.3083 39.6349L49.2103 39.5509ZM53.5643 29.4849C53.303 29.4849 53.0323 29.4989 52.7523 29.5269C52.4723 29.5455 52.1923 29.5735 51.9123 29.6109C51.875 30.1335 51.8423 30.6515 51.8143 31.1649C51.7863 31.6689 51.763 32.1729 51.7443 32.6769C52.155 32.6675 52.5983 32.6442 53.0743 32.6069C53.5596 32.5602 54.017 32.4762 54.4463 32.3549C54.8756 32.2242 55.2256 32.0375 55.4963 31.7949C55.7763 31.5522 55.9163 31.2302 55.9163 30.8289C55.9163 30.3622 55.725 30.0215 55.3423 29.8069C54.9596 29.5922 54.367 29.4849 53.5643 29.4849Z" fill="#fff"/>
<path d="M20.6307 39.2569C20.64 39.3782 20.6494 39.4762 20.6587 39.5509L22.9127 39.4949C22.9314 38.8882 22.9547 38.1415 22.9827 37.2549C23.0201 36.3682 23.0667 35.4349 23.1227 34.4549C24.1494 34.3149 25.1901 34.2449 26.2447 34.2449C26.7861 34.2449 27.3414 34.2635 27.9107 34.3009C28.4801 34.3289 29.0914 34.3802 29.7447 34.4549L29.9127 32.2009C29.5954 32.1075 29.1381 32.0422 28.5407 32.0049C27.9527 31.9676 27.3227 31.9489 26.6507 31.9489C26.0627 31.9489 25.4701 31.9629 24.8727 31.9909C24.2847 32.0189 23.748 32.0655 23.2627 32.1309C23.2907 31.7015 23.3187 31.2862 23.3467 30.8849C23.384 30.4835 23.4214 30.0962 23.4587 29.7229C24.1121 29.6762 24.784 29.6389 25.4747 29.6109C26.1747 29.5735 26.8514 29.5549 27.5047 29.5549C28.1394 29.5549 28.732 29.5735 29.2827 29.6109C29.8334 29.6389 30.3234 29.6949 30.7527 29.7789L30.9627 27.4549C30.3841 27.3989 29.7307 27.3569 29.0027 27.3289C28.284 27.2915 27.5327 27.2729 26.7487 27.2729C25.7034 27.2729 24.6301 27.3009 23.5287 27.3569C22.4367 27.4129 21.4054 27.5062 20.4347 27.6369L20.7427 30.0169C20.8827 29.9982 21.0274 29.9795 21.1767 29.9609C21.13 30.4555 21.0787 31.0202 21.0227 31.6549C20.976 32.2802 20.9294 32.9335 20.8827 33.6149C20.8361 34.2869 20.794 34.9542 20.7567 35.6169C20.7194 36.2702 20.6867 36.8769 20.6587 37.4369C20.64 37.9875 20.6307 38.4542 20.6307 38.8369V39.2569Z" fill="#fff"/>
<path fill-rule="evenodd" clip-rule="evenodd" d="M5.45209 39.7049C4.55609 39.7049 3.76743 39.5275 3.08609 39.1729C2.41409 38.8275 1.88676 38.3422 1.50409 37.7169C1.13076 37.0915 0.944092 36.3682 0.944092 35.5469C0.944092 35.0522 1.02809 34.5342 1.19609 33.9929C1.36409 33.4422 1.63476 32.9289 2.00809 32.4529C2.38143 31.9769 2.87143 31.5895 3.47809 31.2909C4.09409 30.9922 4.84076 30.8429 5.71809 30.8429C6.35276 30.8429 6.88476 30.9129 7.31409 31.0529C7.75276 31.1929 8.10743 31.3749 8.37809 31.5989C8.65809 31.8229 8.86809 32.0609 9.00809 32.3129C9.15742 32.5649 9.25542 32.8075 9.30209 33.0409C9.35809 33.2649 9.38609 33.4515 9.38609 33.6009C9.38609 34.5062 9.00343 35.2062 8.23809 35.7009C7.48209 36.1862 6.40876 36.4289 5.01809 36.4289C4.70076 36.4289 4.39743 36.4149 4.10809 36.3869C3.82809 36.3589 3.56676 36.3262 3.32409 36.2889C3.50143 36.7556 3.79543 37.1009 4.20609 37.3249C4.61676 37.5396 5.04143 37.6469 5.48009 37.6469C6.11476 37.6469 6.67476 37.5349 7.16009 37.3109C7.64543 37.0775 8.10276 36.7229 8.53209 36.2469L9.77809 38.0389C9.47943 38.2815 9.14343 38.5336 8.77009 38.7949C8.40609 39.0562 7.95809 39.2709 7.42609 39.4389C6.89409 39.6162 6.23609 39.7049 5.45209 39.7049ZM5.76009 32.9429C5.20943 32.9429 4.72409 33.0829 4.30409 33.3629C3.88409 33.6429 3.57609 34.0116 3.38009 34.4689C3.61343 34.5062 3.84209 34.5389 4.06609 34.5669C4.29943 34.5855 4.52809 34.5949 4.75209 34.5949C4.95743 34.5949 5.19076 34.5762 5.45209 34.5389C5.72276 34.5015 5.98409 34.4455 6.23609 34.3709C6.49743 34.2962 6.71209 34.2029 6.88009 34.0909C7.04809 33.9695 7.13209 33.8295 7.13209 33.6709C7.13209 33.5962 7.09476 33.5029 7.02009 33.3909C6.94543 33.2789 6.81009 33.1762 6.61409 33.0829C6.41809 32.9895 6.13343 32.9429 5.76009 32.9429Z" fill="#fff"/>
<path d="M10.9748 39.5929C10.9468 38.7715 10.9234 38.0109 10.9048 37.3109C10.8954 36.6109 10.8908 35.9202 10.8908 35.2389C10.8908 34.5575 10.8954 33.8762 10.9048 33.1949C10.9234 32.5042 10.9514 31.7669 10.9888 30.9829H13.3548C13.3174 31.4029 13.2848 31.8275 13.2568 32.2569C13.5741 31.8555 13.9521 31.5242 14.3908 31.2629C14.8294 30.9922 15.3474 30.8569 15.9448 30.8569C16.5328 30.8569 17.0134 30.9549 17.3868 31.1509C17.7694 31.3469 18.0681 31.6175 18.2828 31.9629C18.5068 32.3082 18.6654 32.7049 18.7588 33.1529C18.8614 33.5915 18.9268 34.0676 18.9548 34.5809C18.9828 35.0849 18.9968 35.5935 18.9968 36.1069C18.9968 36.6669 18.9874 37.2035 18.9688 37.7169C18.9501 38.2302 18.9314 38.6595 18.9128 39.0049C18.8941 39.3502 18.8801 39.5555 18.8708 39.6209H16.5188C16.5374 39.2382 16.5561 38.8322 16.5748 38.4029C16.5934 37.9642 16.6121 37.5349 16.6308 37.1149C16.6494 36.6856 16.6588 36.2982 16.6588 35.9529C16.6588 33.9649 16.3368 32.9709 15.6928 32.9709C15.1608 32.9709 14.6754 33.2042 14.2368 33.6709C13.8074 34.1282 13.4481 34.7069 13.1588 35.4069V37.0869C13.1681 37.5629 13.1774 38.0202 13.1868 38.4589C13.2054 38.8882 13.2194 39.2615 13.2288 39.5789L10.9748 39.5929Z" fill="#fff"/>
<path fill-rule="evenodd" clip-rule="evenodd" d="M74.7984 39.5789L72.4044 39.1309C72.8524 37.3202 73.319 35.6822 73.8044 34.2169C74.299 32.7515 74.8077 31.4962 75.3304 30.4509C75.853 29.4056 76.385 28.6029 76.9264 28.0429C77.477 27.4735 78.0277 27.1889 78.5784 27.1889C79.689 27.1889 80.711 28.2202 81.6444 30.2829C82.5777 32.3362 83.371 35.3135 84.0244 39.2149L81.5464 39.5509C81.4344 38.9349 81.313 38.3049 81.1824 37.6609C81.0517 37.0075 80.9164 36.3729 80.7764 35.7569C80.5524 35.7476 80.3097 35.7429 80.0484 35.7429C79.591 35.7429 79.1057 35.7522 78.5924 35.7709C78.0884 35.7896 77.589 35.8222 77.0944 35.8689C76.609 35.9062 76.1564 35.9482 75.7364 35.9949C75.559 36.5922 75.3864 37.1989 75.2184 37.8149C75.0597 38.4216 74.9197 39.0095 74.7984 39.5789ZM77.3744 31.4029C77.169 31.8415 76.8937 32.5509 76.5484 33.5309C76.9497 33.4842 77.3744 33.4515 77.8224 33.4329C78.2704 33.4049 78.709 33.3909 79.1384 33.3909C79.5024 33.3909 79.8524 33.4002 80.1884 33.4189C80.0577 32.9429 79.9317 32.5182 79.8104 32.1449C79.6984 31.7715 79.5957 31.4775 79.5024 31.2629C79.3064 30.7589 79.1337 30.4042 78.9844 30.1989C78.835 29.9842 78.681 29.8769 78.5224 29.8769C78.3544 29.8769 78.1864 29.9889 78.0184 30.2129C77.8504 30.4275 77.6357 30.8242 77.3744 31.4029Z" fill="#fff"/>
<path fill-rule="evenodd" clip-rule="evenodd" d="M98.3508 39.7329C97.6042 39.7329 96.9508 39.6115 96.3908 39.3689C95.8402 39.1262 95.3828 38.7949 95.0188 38.3749C94.6548 37.9455 94.3842 37.4555 94.2068 36.9049C94.0295 36.3542 93.9408 35.7756 93.9408 35.1689C93.9408 34.5529 94.0482 33.9835 94.2628 33.4609C94.4868 32.9289 94.7902 32.4669 95.1728 32.0749C95.5648 31.6829 96.0222 31.3795 96.5448 31.1649C97.0675 30.9409 97.6368 30.8289 98.2528 30.8289C98.8968 30.8289 99.4942 30.9409 100.045 31.1649C100.596 31.3889 101.076 31.7015 101.487 32.1029C101.898 32.5042 102.215 32.9755 102.439 33.5169C102.672 34.0582 102.789 34.6462 102.789 35.2809C102.789 36.6902 102.402 37.7869 101.627 38.5709C100.852 39.3456 99.7602 39.7329 98.3508 39.7329ZM98.3368 37.4649C99.0182 37.4649 99.5362 37.2735 99.8908 36.8909C100.255 36.5082 100.437 35.9576 100.437 35.2389C100.437 34.5949 100.241 34.0769 99.8488 33.6849C99.4568 33.2929 98.9435 33.0969 98.3088 33.0969C97.9262 33.0969 97.5762 33.1996 97.2588 33.4049C96.9415 33.6009 96.6848 33.8669 96.4888 34.2029C96.3022 34.5295 96.2088 34.8936 96.2088 35.2949C96.2088 35.6495 96.2788 35.9949 96.4188 36.3309C96.5682 36.6669 96.8015 36.9422 97.1188 37.1569C97.4362 37.3622 97.8422 37.4649 98.3368 37.4649Z" fill="#fff"/>
</svg>
