<svg width="125" height="207" viewBox="0 0 125 207" fill="none" xmlns="http://www.w3.org/2000/svg">
<path fill-rule="evenodd" clip-rule="evenodd" d="M35.5917 151.996H58.0883C58.5306 155.26 59.627 158.581 61.6214 161.381C64.4464 165.348 68.9246 168.03 75.0545 168.03C81.1845 168.03 85.6626 165.348 88.4876 161.381C91.2052 157.566 92.2555 152.782 92.2555 148.496C92.2555 146.563 90.6885 144.996 88.7555 144.996H35.5917C33.6587 144.996 32.0917 146.563 32.0917 148.496C32.0917 150.429 33.6587 151.996 35.5917 151.996ZM84.9321 151.996H65.177C65.5574 153.995 66.2731 155.846 67.3231 157.32C68.8607 159.479 71.2331 161.03 75.0545 161.03C78.8759 161.03 81.2483 159.479 82.7859 157.32C83.8359 155.846 84.5517 153.995 84.9321 151.996Z" fill="#fff"/>
<path d="M24.6494 96.0085C26.0162 94.6416 28.2323 94.6416 29.5991 96.0085L38.069 104.478L46.5389 96.0085C47.9058 94.6417 50.1218 94.6417 51.4887 96.0085C52.8555 97.3753 52.8555 99.5914 51.4887 100.958L43.0188 109.428L51.4887 117.898C52.8555 119.265 52.8555 121.481 51.4887 122.848C50.1218 124.215 47.9058 124.215 46.5389 122.848L38.069 114.378L29.5991 122.848C28.2323 124.215 26.0162 124.215 24.6494 122.848C23.2826 121.481 23.2826 119.265 24.6494 117.898L33.1193 109.428L24.6494 100.958C23.2826 99.5914 23.2826 97.3753 24.6494 96.0085Z" fill="#fff"/>
<path d="M72.8583 96.0084C74.2251 94.6416 76.4412 94.6416 77.808 96.0084L86.2779 104.478L94.7478 96.0085C96.1146 94.6416 98.3307 94.6416 99.6975 96.0085C101.064 97.3753 101.064 99.5914 99.6975 100.958L91.2277 109.428L99.6975 117.898C101.064 119.265 101.064 121.481 99.6975 122.848C98.3307 124.215 96.1146 124.215 94.7478 122.848L86.2779 114.378L77.808 122.848C76.4412 124.215 74.2251 124.215 72.8583 122.848C71.4914 121.481 71.4914 119.265 72.8583 117.898L81.3282 109.428L72.8583 100.958C71.4914 99.5914 71.4914 97.3753 72.8583 96.0084Z" fill="#fff"/>
<path fill-rule="evenodd" clip-rule="evenodd" d="M73.1162 11.4427C73.1162 14.3171 72.0079 16.9327 70.1954 18.8854C72.0079 20.8381 73.1162 23.4536 73.1162 26.3281C73.1162 29.2025 72.0079 31.8181 70.1954 33.7708C72.0079 35.7235 73.1162 38.339 73.1162 41.2134C73.1162 44.0879 72.0079 46.7034 70.1954 48.6561C72.0079 50.6088 73.1162 53.2244 73.1162 56.0988C73.1162 57.7913 72.732 59.394 72.046 60.8245C101.538 65.5518 124.07 91.1137 124.07 121.938C124.07 142.755 113.794 161.172 98.0368 172.393C103.564 174.32 107.531 179.578 107.531 185.763C107.531 193.582 101.193 199.92 93.3742 199.92C90.642 199.92 88.0906 199.146 85.9273 197.805C83.809 202.954 78.7428 206.579 72.83 206.579C68.5806 206.579 64.7684 204.707 62.1736 201.742C59.5787 204.707 55.7666 206.579 51.5172 206.579C45.6043 206.579 40.5382 202.954 38.4199 197.805C36.2566 199.146 33.7052 199.92 30.973 199.92C23.1546 199.92 16.8165 193.582 16.8165 185.763C16.8165 179.578 20.7827 174.32 26.3104 172.393C10.5535 161.172 0.276855 142.755 0.276855 121.938C0.276855 91.1137 22.8089 65.5518 52.3011 60.8246C51.6151 59.394 51.2308 57.7913 51.2308 56.0988C51.2308 53.2244 52.3391 50.6088 54.1517 48.6561C52.3391 46.7034 51.2308 44.0879 51.2308 41.2134C51.2308 38.339 52.3391 35.7235 54.1517 33.7708C52.3391 31.8181 51.2308 29.2025 51.2308 26.3281C51.2308 23.4536 52.3391 20.8381 54.1517 18.8854C52.3391 16.9327 51.2308 14.3171 51.2308 11.4427C51.2308 5.39921 56.13 0.5 62.1735 0.5C68.217 0.5 73.1162 5.39921 73.1162 11.4427ZM62.1735 7.5C59.996 7.5 58.2308 9.2652 58.2308 11.4427C58.2308 13.6202 59.996 15.3854 62.1735 15.3854C64.351 15.3854 66.1162 13.6202 66.1162 11.4427C66.1162 9.2652 64.351 7.5 62.1735 7.5ZM58.2308 26.3281C58.2308 24.1506 59.996 22.3854 62.1735 22.3854C64.351 22.3854 66.1162 24.1506 66.1162 26.3281C66.1162 28.5056 64.351 30.2708 62.1735 30.2708C59.996 30.2708 58.2308 28.5056 58.2308 26.3281ZM62.1735 37.2708C59.996 37.2708 58.2308 39.036 58.2308 41.2134C58.2308 43.3909 59.996 45.1561 62.1735 45.1561C64.351 45.1561 66.1162 43.3909 66.1162 41.2134C66.1162 39.036 64.351 37.2708 62.1735 37.2708ZM58.2308 56.0988C58.2308 53.9213 59.996 52.1561 62.1735 52.1561C64.351 52.1561 66.1162 53.9213 66.1162 56.0988C66.1162 58.2763 64.351 60.0415 62.1735 60.0415C59.996 60.0415 58.2308 58.2763 58.2308 56.0988ZM7.27686 121.938C7.27686 91.6196 31.855 67.0415 62.1736 67.0415C92.4922 67.0415 117.07 91.6196 117.07 121.938C117.07 152.257 92.4922 176.835 62.1736 176.835C31.855 176.835 7.27686 152.257 7.27686 121.938ZM65.6736 192.422C65.6736 196.375 68.8776 199.579 72.83 199.579C76.7824 199.579 79.9865 196.375 79.9865 192.422C79.9865 188.47 76.7824 185.266 72.83 185.266C68.8776 185.266 65.6736 188.47 65.6736 192.422ZM58.6736 192.422C58.6736 188.47 55.4695 185.266 51.5172 185.266C47.5648 185.266 44.3607 188.47 44.3607 192.422C44.3607 196.375 47.5648 199.579 51.5172 199.579C55.4695 199.579 58.6736 196.375 58.6736 192.422ZM93.3742 178.607C89.4218 178.607 86.2178 181.811 86.2178 185.763C86.2178 189.716 89.4218 192.92 93.3742 192.92C97.3266 192.92 100.531 189.716 100.531 185.763C100.531 181.811 97.3266 178.607 93.3742 178.607ZM38.1294 185.763C38.1294 181.811 34.9254 178.607 30.973 178.607C27.0206 178.607 23.8165 181.811 23.8165 185.763C23.8165 189.716 27.0206 192.92 30.973 192.92C34.9254 192.92 38.1294 189.716 38.1294 185.763Z" fill="#fff"/>
</svg>
