<svg width="22" height="22" viewBox="0 0 22 22" fill="none" xmlns="http://www.w3.org/2000/svg">
<path fill-rule="evenodd" clip-rule="evenodd" d="M11.6139 0.210648C11.2528 -0.0702159 10.7472 -0.0702159 10.3861 0.210648L1.38606 7.21065C1.14247 7.4001 1 7.69141 1 8V19C1 19.7957 1.31607 20.5587 1.87868 21.1213C2.44129 21.6839 3.20435 22 4 22H18C18.7957 22 19.5587 21.6839 20.1213 21.1213C20.6839 20.5587 21 19.7957 21 19V8C21 7.69141 20.8575 7.4001 20.6139 7.21065L11.6139 0.210648ZM3 19V8.48908L11 2.26686L19 8.48908V19C19 19.2652 18.8946 19.5196 18.7071 19.7071C18.5196 19.8946 18.2652 20 18 20H15V11C15 10.4477 14.5523 9.99996 14 9.99996H8C7.44771 9.99996 7 10.4477 7 11V20H4C3.73478 20 3.48043 19.8946 3.29289 19.7071C3.10536 19.5196 3 19.2652 3 19ZM9 20H13V12H9V20Z" fill="#fff"/>
</svg>
