<svg width="24" height="24" viewBox="0 0 24 24" fill="none" xmlns="http://www.w3.org/2000/svg">
<path fill-rule="evenodd" clip-rule="evenodd" d="M11.5524 2.10854C12.9909 1.20606 14.6931 0.818486 16.3806 1.00921C18.068 1.19993 19.6407 1.95767 20.8415 3.15846C22.0423 4.35924 22.8001 5.93199 22.9908 7.61942C23.1815 9.30685 22.7939 11.009 21.8915 12.4476C20.989 13.8861 19.625 14.9757 18.0227 15.5383C16.6229 16.0298 15.1135 16.0935 13.685 15.7292L12.7071 16.7071C12.5196 16.8946 12.2652 17 12 17H11V19C11 19.5523 10.5523 20 10 20H8V22C8 22.5523 7.55228 23 7 23H3C2.47275 23 1.95567 22.8199 1.56789 22.4321C1.18011 22.0443 1 21.5272 1 21V18C1 17.7348 1.10536 17.4804 1.29289 17.2929L8.2708 10.315C7.90651 8.88652 7.97023 7.37712 8.46171 5.97725C9.02426 4.37496 10.1139 3.01101 11.5524 2.10854ZM16.156 2.99656C14.9185 2.85669 13.6702 3.14092 12.6153 3.80273C11.5604 4.46455 10.7613 5.46477 10.3488 6.63978C9.93625 7.81479 9.93468 9.09502 10.3443 10.271C10.4705 10.6333 10.3784 11.0358 10.1071 11.3071L3 18.4142V21H6V19C6 18.4477 6.44772 18 7 18H9V16C9 15.4477 9.44772 15 10 15H11.5858L12.6929 13.8929C12.9642 13.6216 13.3667 13.5295 13.729 13.6557C14.905 14.0653 16.1852 14.0637 17.3602 13.6512C18.5352 13.2387 19.5354 12.4396 20.1973 11.3847C20.8591 10.3298 21.1433 9.08149 21.0034 7.84404C20.8636 6.6066 20.3079 5.45325 19.4273 4.57267C18.5467 3.69209 17.3934 3.13642 16.156 2.99656Z" fill="#fff"/>
<path fill-rule="evenodd" clip-rule="evenodd" d="M16.5 7.99999C16.7761 7.99999 17 7.77614 17 7.49999C17 7.22385 16.7761 6.99999 16.5 6.99999C16.2239 6.99999 16 7.22385 16 7.49999C16 7.77614 16.2239 7.99999 16.5 7.99999ZM15 7.49999C15 6.67157 15.6716 5.99999 16.5 5.99999C17.3284 5.99999 18 6.67157 18 7.49999C18 8.32842 17.3284 8.99999 16.5 8.99999C15.6716 8.99999 15 8.32842 15 7.49999Z" fill="#fff"/>
</svg>
