<svg width="22" height="22" viewBox="0 0 22 22" fill="none" xmlns="http://www.w3.org/2000/svg">
<g clip-path="url(#clip0_121_894)">
<path d="M10.5021 13.9999C9.94984 13.9999 9.50212 14.4476 9.50212 14.9999C9.50212 15.3701 9.70322 15.6932 10.0021 15.8661V16.9999C10.0021 17.5522 10.4498 17.9999 11.0021 17.9999C11.5544 17.9999 12.0021 17.5522 12.0021 16.9999V14.9999C12.0021 14.4476 11.5544 13.9999 11.0021 13.9999H10.5021Z" fill="#fff"/>
<path fill-rule="evenodd" clip-rule="evenodd" d="M3.78122 0.259684C4.16503 0.0886783 4.58098 0 5.00215 0H17.0021C17.4233 0 17.8392 0.0886567 18.2229 0.259621C18.2823 0.281205 18.3404 0.308752 18.3966 0.342458L18.4125 0.352204C18.8003 0.55873 19.1382 0.848056 19.4021 1.2L19.403 1.2012L20.9999 3.33701L21.0017 3.33934C21.3551 3.80785 21.5633 4.36975 21.6006 4.95546C21.6379 5.54215 21.5021 6.12688 21.2099 6.63701L21.2076 6.64099L16.7633 14.3184C16.9188 14.852 17.0021 15.4162 17.0021 16C17.0021 19.3137 14.3158 22 11.0021 22C7.68842 22 5.00212 19.3137 5.00212 16C5.00212 15.4162 5.08549 14.8519 5.24097 14.3183L0.796699 6.64099C0.502401 6.1323 0.363866 5.54816 0.398532 4.96149C0.433199 4.37483 0.639413 3.81126 0.991571 3.34077L0.993045 3.3388L2.60215 1.2C2.86607 0.848317 3.20434 0.558582 3.59194 0.352117L3.60771 0.342458C3.66383 0.308785 3.72193 0.281259 3.78122 0.259684ZM19.4744 5.64299L15.665 12.2237C15.0755 11.4967 14.3194 10.9103 13.4548 10.5225L15.8498 6.53078C15.8569 6.51947 15.8638 6.50801 15.8704 6.4964L18.094 2.7904L19.4013 4.5388L19.4044 4.54299C19.5226 4.69932 19.5922 4.88691 19.6046 5.08248C19.617 5.27738 19.5721 5.47164 19.4754 5.64127L19.4744 5.64299ZM11.0021 9.99996C11.145 9.99996 11.2867 10.005 11.427 10.0148L13.2359 6.99993H8.76838L10.5773 10.0148C10.7176 10.005 10.8593 9.99996 11.0021 9.99996ZM6.33932 12.2236C6.92883 11.4966 7.68495 10.9102 8.54954 10.5225L6.15315 6.52851C6.14703 6.51869 6.14107 6.50876 6.13528 6.49872L3.90947 2.78903L2.59273 4.53923L2.59211 4.54006C2.4751 4.69672 2.40658 4.88426 2.39505 5.07947C2.3835 5.27495 2.4296 5.46952 2.52762 5.63904L6.33932 12.2236ZM14.4359 4.99993H7.56838L5.76843 2H16.2359L14.4359 4.99993ZM11.0021 12C8.79298 12 7.00212 13.7908 7.00212 16C7.00212 18.2091 8.79298 20 11.0021 20C13.2113 20 15.0021 18.2091 15.0021 16C15.0021 13.7908 13.2113 12 11.0021 12Z" fill="#fff"/>
</g>
<defs>
<clipPath id="clip0_121_894">
<rect width="22" height="22" fill="#fff"/>
</clipPath>
</defs>
</svg>
