<svg width="24" height="24" viewBox="0 0 24 24" fill="none" xmlns="http://www.w3.org/2000/svg">
<path d="M15.7071 8.29289C15.3166 7.90237 14.6834 7.90237 14.2929 8.29289L8.29289 14.2929C7.90237 14.6834 7.90237 15.3166 8.29289 15.7071C8.68342 16.0976 9.31658 16.0976 9.70711 15.7071L15.7071 9.70711C16.0976 9.31658 16.0976 8.68342 15.7071 8.29289Z" fill="#fff"/>
<path d="M9 8H9.01C9.56229 8 10.01 8.44772 10.01 9C10.01 9.55229 9.56229 10 9.01 10H9C8.44772 10 8 9.55229 8 9C8 8.44772 8.44772 8 9 8Z" fill="#fff"/>
<path d="M15.01 14H15C14.4477 14 14 14.4477 14 15C14 15.5523 14.4477 16 15 16H15.01C15.5623 16 16.01 15.5523 16.01 15C16.01 14.4477 15.5623 14 15.01 14Z" fill="#fff"/>
<path fill-rule="evenodd" clip-rule="evenodd" d="M12 1C5.92487 1 1 5.92487 1 12C1 18.0751 5.92487 23 12 23C18.0751 23 23 18.0751 23 12C23 5.92487 18.0751 1 12 1ZM3 12C3 7.02944 7.02944 3 12 3C16.9706 3 21 7.02944 21 12C21 16.9706 16.9706 21 12 21C7.02944 21 3 16.9706 3 12Z" fill="#fff"/>
</svg>
