<svg width="22" height="22" viewBox="0 0 22 22" fill="none" xmlns="http://www.w3.org/2000/svg">
<path fill-rule="evenodd" clip-rule="evenodd" d="M3.1499 6C3.1499 3.23858 5.38848 1 8.1499 1C10.9113 1 13.1499 3.23858 13.1499 6C13.1499 8.76142 10.9113 11 8.1499 11C5.38848 11 3.1499 8.76142 3.1499 6ZM8.1499 3C6.49305 3 5.1499 4.34315 5.1499 6C5.1499 7.65685 6.49305 9 8.1499 9C9.80676 9 11.1499 7.65685 11.1499 6C11.1499 4.34315 9.80676 3 8.1499 3Z" fill="#fff"/>
<path fill-rule="evenodd" clip-rule="evenodd" d="M20.3049 11.5409C20.0641 11.2324 19.7791 10.9602 19.4594 10.7337L19.4985 10.6162C19.6732 10.0923 19.39 9.52598 18.8661 9.35133C18.3421 9.17668 17.7758 9.45984 17.6012 9.98379L17.5879 10.0237C17.444 10.008 17.2979 10 17.1499 10C16.9377 10 16.7295 10.0165 16.5263 10.0483L16.4784 9.92862C16.2733 9.41584 15.6913 9.16642 15.1786 9.37154C14.6658 9.57665 14.4164 10.1586 14.6215 10.6714L14.6909 10.8449C14.3823 11.0857 14.1101 11.3707 13.8836 11.6905L13.7661 11.6513C13.2422 11.4767 12.6758 11.7599 12.5012 12.2838C12.3266 12.8077 12.6097 13.3741 13.1337 13.5487L13.1736 13.562C13.1579 13.7059 13.1499 13.852 13.1499 14C13.1499 14.2121 13.1664 14.4204 13.1982 14.6237L13.0785 14.6715C12.5657 14.8767 12.3163 15.4586 12.5214 15.9714C12.7265 16.4842 13.3085 16.7336 13.8213 16.5285L13.9948 16.4591C14.2356 16.7676 14.5206 17.0398 14.8404 17.2663L14.8012 17.3837C14.6266 17.9077 14.9097 18.474 15.4337 18.6486C15.9576 18.8233 16.5239 18.5401 16.6986 18.0162L16.7119 17.9763C16.8557 17.992 17.0019 18 17.1499 18C17.362 18 17.5703 17.9835 17.7735 17.9517L17.8214 18.0714C18.0265 18.5842 18.6085 18.8336 19.1213 18.6285C19.6341 18.4234 19.8835 17.8414 19.6784 17.3286L19.6089 17.1551C19.9174 16.9143 20.1897 16.6292 20.4162 16.3095L20.5337 16.3487C21.0576 16.5233 21.624 16.2402 21.7986 15.7162C21.9732 15.1923 21.6901 14.626 21.1661 14.4513L21.1262 14.438C21.1418 14.2941 21.1499 14.148 21.1499 14C21.1499 13.7879 21.1334 13.5796 21.1015 13.3763L21.2213 13.3284C21.7341 13.1233 21.9835 12.5414 21.7784 12.0286C21.5732 11.5158 20.9913 11.2664 20.4785 11.4715L20.3049 11.5409ZM16.1189 12.2858C15.5382 12.6358 15.1499 13.2726 15.1499 14C15.1499 14.202 15.1798 14.3971 15.2355 14.5809C15.2934 14.6544 15.3419 14.7374 15.3784 14.8286C15.405 14.8952 15.424 14.963 15.4357 15.0309C15.7857 15.6116 16.4224 16 17.1499 16C17.3519 16 17.547 15.97 17.7309 15.9143C17.8044 15.8565 17.8873 15.808 17.9785 15.7715C18.0451 15.7449 18.1128 15.726 18.1807 15.7142C18.7615 15.3642 19.1499 14.7275 19.1499 14C19.1499 13.7979 19.1199 13.6028 19.0642 13.419C19.0063 13.3455 18.9579 13.2626 18.9214 13.1714C18.8948 13.1048 18.8758 13.0371 18.8641 12.9692C18.5141 12.3884 17.8774 12 17.1499 12C16.9479 12 16.7529 12.0299 16.5691 12.0856C16.4956 12.1435 16.4126 12.192 16.3213 12.2285C16.2547 12.2551 16.1869 12.2741 16.1189 12.2858Z" fill="#fff"/>
<path d="M5.1499 13C3.82382 13 2.55205 13.5268 1.61437 14.4645C0.676687 15.4021 0.149902 16.6739 0.149902 18V20C0.149902 20.5523 0.597618 21 1.1499 21C1.70219 21 2.1499 20.5523 2.1499 20V18C2.1499 17.2043 2.46597 16.4413 3.02858 15.8787C3.59119 15.3161 4.35425 15 5.1499 15H9.1499C9.70219 15 10.1499 14.5523 10.1499 14C10.1499 13.4477 9.70219 13 9.1499 13H5.1499Z" fill="#fff"/>
</svg>
