<svg width="24" height="24" viewBox="0 0 24 24" fill="none" xmlns="http://www.w3.org/2000/svg">
<path d="M6.24875 10.8562C6.24875 10.0435 6.9076 9.38464 7.72034 9.38464C8.53307 9.38464 9.19193 10.0435 9.19193 10.8562C9.19193 11.4085 9.63964 11.8562 10.1919 11.8562C10.7442 11.8562 11.1919 11.4085 11.1919 10.8562C11.1919 8.93893 9.63764 7.38464 7.72034 7.38464C5.80303 7.38464 4.24875 8.93893 4.24875 10.8562C4.24875 11.4085 4.69646 11.8562 5.24875 11.8562C5.80103 11.8562 6.24875 11.4085 6.24875 10.8562Z" fill="#fff"/>
<path d="M16.2796 9.38464C15.4669 9.38464 14.8081 10.0435 14.8081 10.8562C14.8081 11.4085 14.3603 11.8562 13.8081 11.8562C13.2558 11.8562 12.8081 11.4085 12.8081 10.8562C12.8081 8.93893 14.3623 7.38464 16.2796 7.38464C18.197 7.38464 19.7512 8.93893 19.7512 10.8562C19.7512 11.4085 19.3035 11.8562 18.7512 11.8562C18.199 11.8562 17.7512 11.4085 17.7512 10.8562C17.7512 10.0435 17.0924 9.38464 16.2796 9.38464Z" fill="#fff"/>
<path fill-rule="evenodd" clip-rule="evenodd" d="M12 19.5199C9.23985 19.5199 7.00232 17.2824 7.00232 14.5222C7.00232 13.9699 7.45003 13.5222 8.00232 13.5222H15.9977C16.55 13.5222 16.9977 13.9699 16.9977 14.5222C16.9977 17.2824 14.7601 19.5199 12 19.5199ZM12 17.5199C13.3049 17.5199 14.4151 16.6861 14.8268 15.5222H9.17317C9.5849 16.6861 10.6951 17.5199 12 17.5199Z" fill="#fff"/>
<path fill-rule="evenodd" clip-rule="evenodd" d="M12 1C5.92487 1 1 5.92487 1 12C1 18.0751 5.92487 23 12 23C18.0751 23 23 18.0751 23 12C23 5.92487 18.0751 1 12 1ZM3 12C3 7.02944 7.02944 3 12 3C16.9706 3 21 7.02944 21 12C21 16.9706 16.9706 21 12 21C7.02944 21 3 16.9706 3 12Z" fill="#fff"/>
</svg>
